<svg version="1.1" xmlns="http://www.w3.org/2000/svg" xmlns:xlink="http://www.w3.org/1999/xlink" x="0px" y="0px" viewBox="0 0 4654.5 2615.1" style="enable-background:new 0 0 4654.5 2615.1;" xml:space="preserve">
<!--<style type="text/css">-->
    <!--.A{fill:#EE3D96;}-->
    <!--.B{fill:#A6CE39;}-->
    <!--.C{fill:#9A3393;}-->
    <!--.D{fill:#00B6B5;}-->
    <!--.E{fill:#005BAA;}-->
    <!--.F{fill:#A5CF4C;}-->
    <!--.G{fill:#FFFFFF;}-->
    <!--.H{fill:#DCDDDE;}-->
    <!--.I{fill:#BCBEC0;}-->
    <!--</style>-->

<g>
	<path class="A" style="fill:#EE3D96" d="M2128.8,414.1c13.8,2.4,21.4-15,15.1-39.6c-6.1-24.4-23-39.6-33.4-37c-11.7,3.2-19.5,21-12.3,41.6
		C2105.3,399.9,2114.7,411.5,2128.8,414.1 M2680,282.7c-16.6,14.7-9.7,43.9,0.2,56.9c14.2,18.6,46.8,18.6,63.3-0.3
		c15.1-17.8,6.7-46.7-13.1-61.6C2716.9,267.3,2696.7,268.3,2680,282.7 M2907.9,1243.2c-7.4,12.1-0.3,31.7,10.8,44.3
		c10.8,12.4,23.8,13,31.9,4.6c13.9-14,4.5-35.3-7.1-46C2932.5,1235,2913.9,1233.1,2907.9,1243.2 M1788.7,1256.1
		c-20.2,7-29.9,24.9-24.6,40c7.2,20.6,30.3,22.3,51.1,8.9c14.6-9.3,18.8-26.6,9.8-43.3C1820.5,1253.6,1808.2,1249.4,1788.7,1256.1
		 M1683.3,308.8c22-11.4,25.8-38.6,21-52.3c-4.8-13.7-13.8-34.5-48.5-23.1c-24.1,7.9-34.1,38.3-20.6,59.8
		C1645.3,309.2,1664.2,318.7,1683.3,308.8 M1359.8,1153.8c22.1,16.4,57.7,16.8,103.3,0.8c10.5-3.7,21.1-8.2,32.3-13.3
		c14.4-6.9,27.8-14,41.4-21.6c25.3-13.5,51.5-27.3,91.4-43.5c12.4-5.1,26.1-10.1,40.3-15.1c35.8-12.6,75-24.1,98.9-29.1
		c8.3-1.9,19.1-4.3,30.7-6.9c32-7.6,71.7-16.7,96.7-18.8c5.6-0.6,13.3-3,20.6-5.2c18.3-5.7,48.7-15.3,58.6,13.2
		c12.2,34.8-7.6,60.3-23.8,76.2c-5.1,5.2-11.8,8.9-21.4,12.3c-7.4,2.5-15.6,4.6-24.3,6.7c-9.5,2.1-19.3,4.7-28.1,7.8
		c-16.4,5.7-27.2,12.8-34.8,23.3c-6.1,8.2-6.5,16.2-1.5,24.2c6.2,10.6,19.3,17.3,26.8,16c8-1,15.5-3,23-5.6
		c28-9.9,49.5-29.7,73.2-56.5c5.8-6.5,12.2-11.3,19.4-13.8c17-6,32.8,1.5,41.8,10.6c7.2,7,14.6,20.7,12.8,36.6
		c-0.6,9.3-5.9,23.2-24.2,34.6c-27.6,17.5-44.7,37-47.4,54.7c-2,9.7,0.5,18.4,7,27c6.1,7.9,15.6,10.5,26.1,6.8
		c11.8-4.2,21.7-15.7,25.7-30.6c6.7-21.6,21-38.7,37.7-44.5c11.1-3.8,22.4-2.8,32.6,3.4c29.7,17.1,36.4,45.1,18.4,76.5
		c-11.5,20.9-37.2,86-46.8,98.5c-10.8,14.6-51.7,95.6-65.2,121.1c-10,19.4-12.5,43.1-5.8,57.7c2.7,5.8,7,9.3,11.9,10.5
		c9.2,2.1,18.5,1.6,27.2-1.4c13.7-4.8,23.1-15.5,24.5-27.4c6.4-56,69.5-222.3,81.5-253c6-15.1,14.2-24.4,24.6-28.1
		c8.3-2.9,16.2-1.9,22.7-0.3c21.1,4.4,33.3,43.9,29,64.9c-5.4,26.4,3.4,36.6,14.9,49.2c11.8,13.8,27.1,30.8,16.9,66
		c-13.1,47.5-44.8,144.6-66.2,208.9c-5.7,18.3-10.8,33.9-14.6,44.9c-9.4,29.8-7.4,64.5,5.7,83.7c5.7,8.6,12.9,13.4,21.3,14.2
		c5.7,0.6,14.3,0.7,24.2-2.8c24.6-8.7,39.1-32.7,40.6-67.6c4.2-96.4,18-324.8,57.1-362.9c18.2-17.1,23.2-28.6,27.5-37.7
		c5.2-11.2,10.1-22,31.3-29.5c8.5-3,19.6-5.5,34.6-8c16.8-2.8,32.6,1.2,45.2,12c22.1,18.8,76.3,192.7,76,210.5
		c0.1,18.8,8.6,44.9,24.6,56.9c8.1,6.1,16.6,7.5,26.5,4.2l3.2-0.9c15.3-5.4,24.8-13.5,28-24.1c4.4-15.2-3.5-37-22.8-61.5
		c-14.4-18.3-66.2-177-62.1-191.5c2.3-7.2,7.7-16.6,22-21.6c2.7-1,6.4-1.9,9.8-2.6c28-4,77.5,44.3,112,110.5
		c44.3,85.1,84.3,186.6,102.6,244.5c6.7,21.6,23,40.7,43.8,51.1c17.6,9.1,36.7,10.6,53.6,4.7c10.9-3.9,20.9-11.1,29.6-21.5
		c43.2-52.1,26.5-97,5.5-125.3c-12.9-17.1-65.2-68.4-111.6-113.8c-40.3-39.7-41.2-41.3-53.6-56.1l-6.5-7.6
		c-62.4-74.5-31-42.1-54.8-62.6c-12.1-11.2-24.2-48.5-12.4-52.6c25.7-9,36.2-13.7,50.8,11.6c9.6,17,23.8,22.9,31.9,20
		c2.4-0.8,14,1,16-1.9c3.1-4.4,93.9-31.4,6.2-97.5c-7-5.6-35.3-22-41.3-23.9c-16.5-4.9-37.2-25.8-45.7-45.2
		c-6.4-14.2-4.6-24.3-2-30.4c3.9-8.6,15.6-29.1,40.6-37.8c14-4.9,29.5-5.3,46.3-0.8c31.6,8.4,87.7,30,133,47.5
		c14.2,5.2,27.1,10.5,38.3,14.6c69.6,26.3,193.9,89.8,250.5,125.6c19.5,12,45.8,15.3,65.5,8.4c12.7-4.5,22.3-12.9,28.3-25.1
		c1.2-2.3,1.8-10.1-5.6-22.4c-13.4-24-48.6-53.9-103.6-59c-4.4-0.3-8.6-0.7-13.6-1.1c-37.8-3.1-95.3-7.7-127.8-34.5
		c-14-11.3-15.6-21.3-14.7-27.6c1.6-7.4,6.8-12.8,14.2-15.5c11.4-4,28.4-1.9,48.2,6.4c8.5,3.3,18.8,3.6,27.8,0.5
		c9-3.1,15.7-9.1,17.6-15.7c1.5-5.2-0.1-11.4-4.5-17.5c-17.5-23.5-64.8-23.7-168.1-0.7c-52.9,11.9-135.8,0.6-172.4-12.4
		c-20.3-7.2-31.4-17-34.8-29.7c-4.5-17.4,8.8-32.8,13-38c17.6-20.6,9.9-30.8-7-48.6c-9.9-10.6-25-26.6-12.6-44.1
		c4.5-6.2,11.3-10.8,20.4-14c16.8-5.9,39.5-5.9,60.7,0.2c35.7,10,66.1,13,81.6,7.6c2.9-1,4.7-2.1,6.3-3.8c9.5-8.7,9-12.5,2.4-21.4
		c-7.2-9.5-40.3-6.7-52.5-5.8c-24.6,2.1-31.4-11.3-32.8-17.1c-4.5-15.2,6.7-31.7,20.1-38.6c6.9-3.8,17.5-8.1,30.5-12.7
		c17.8-6.2,42.4-13.4,57.2-14.4c21.2-2,37.1-1.5,51.1-1c22.3,0.6,39.6,1.4,67.8-6l3.6-1.1c20.3-7.2,45-29.8,48.3-51.3
		c1.7-11.4,0.4-28-9.2-36.1c-10.5-8.7-30.5-8.2-57.3,1.2c-11.1,3.9-23,9.2-35.7,15.6c-15.3,8-30.3,15.5-44.9,23.3
		c-68,35.2-132.6,68.7-177.7,84.5c-20.7,7.3-36.6,10.5-48.6,10.3c-37.2-0.9-60.7-22.9-67.6-44.2c-5.4-16.5-1.6-36,9.8-46.8
		c4.8-4.7,11.2-8.6,19.2-12.3c10.8-5,218.4-136.5,231.9-140.7c14.2-4.4,28.9-9.1,42.1-15.5c4.6-2,8.1-4,11.7-6
		c15.3-9.4,23.9-18.9,25.7-27.9c1.3-5.8-0.7-11.9-6-18.2c-7.1-9.4-25.1-22.3-46.7-12.1c-7.3,3.2-14.6,9.2-21.3,17.3
		c-16.6,20-256.8,186.3-285,199.6c-3.4,1.6-6.6,2.7-9.5,3.8c-15.1,4.4-30.5-3.2-42.6-16c-11.4-12.7-15.3-29.4-10.7-46.6
		c6.4-24.1,33.7-44.9,62.4-67c15-11.4,30.4-23.2,42.9-35.6c16.3-16.3,20.1-32.3,20.1-43c0-12.4-4.8-22.5-9.6-27.3
		c-2.4-2.9-14.2-5.8-29.2-0.5c-7.3,2.6-20.7,9.1-28.6,24.8c-5.3,10.8-55.3,109.6-81.3,127.8c-7.4,5.2-14.6,8.9-21.5,11.3
		c-15.2,5.3-29.4,4.5-41.2-2.6c-15.1-8.7-25.5-25.9-29.9-49.7c-4.8-25.8,19.5-101.9,27.1-124.5c13.2-39.7,66.8-183.3,83.6-210.5
		c23.9-38.7,49.6-120,36.5-172.5c-2-7.4-7.2-14.3-15.2-18.6c-9.5-5-21.1-5.9-31.5-2.2c-8.5,3-15.8,8.5-22.6,16.6
		c-19.5,23.5-27.8,77.6-32.4,106.6l-0.6,2.5c-19.6,124.2-35.5,213.5-47.3,265.8l-1.9,9.4c-8.2,37.7-21.8,26.6-56,54.9
		c-10.3,8.7-22.9,15.7-36.1,20.3c-32.3,11.3-59.7,60.2-74.4,41.3c-18.6-24.4-31-91.2-25-116.6c1.9-8-1.6-17.9-8.3-24.1
		c-6-5.2-13.3-6.4-21-3.7c-1.4,0.5-33.7,12.3-20.3,52.4c7,20.3,16.1,36.6,24.4,50.2c9.4,15.8,16.6,28.7,17.2,41.9
		c0.3,14.6-6.2,25.5-17.6,29.5c-11,3.8-25,0.1-38.2-10.3c-14.5-11.7-21.2-29.9-26.9-45.9c-9.4-25.5-12.3-26.1-18.7-24l-0.5,0.2
		c-7.5,2.6-11.3,6-12.4,10.6c-1.1,5.6,2.4,13.5,8.7,19.1c10.6,9.8,27.9,26.3,29.2,49.8c0.6,24.4-11.3,32.3-18.4,34.8
		c-9.5,3.3-20.8,1.5-33.5-4.9c-17.2-8.5-41.2-41-82.3-97.8c-7.2-10-14.6-20.1-21.9-30.4c-8.9-11.8-19.4-27-31.5-44.6
		c-21.1-29.6-46.8-66.5-73.2-101.8c-46.5-61.2-94.9-90.5-129.5-78.4c-2.5,0.9-4.7,2-7.4,3.1c-8.9,5.1-13,14.7-14.7,21.8
		c-5.8,20.9,0.3,48.5,15.3,72c25.2,39.1,67.6,76.6,122.7,108.6c46.8,27,119.2,89.9,130.9,106.2c27.3,38.7,34.5,66.2,21.7,84
		c-6,8.3-16.1,15.4-28.4,19.7c-12.5,4.4-26.1,5.2-38.9,2.5c-27.8-6.3-109.1-82.2-123.9-98.1c-6.4-6.9-12.6-12.9-17-16.2
		c-19.4-12.1-37.1-15.5-53.4-9.8c-8.8,3.1-17,8.7-24.6,16.4c-10.7,10.9-9.6,26.3-7.9,34.4c3.2,15.1,13,29.4,23,33.6
		c20.2,8.4,47.8,11.7,70.2,14.4c9.1,1.3,17.2,2.1,23.7,3.2c14.9,2.8,30.7,46.9,37.8,62.9c6.7,15.3,5.2,31.8-3.4,44.6
		c-8.4,13.3,35.7,49.6,18.4,55.6c-7.6,2.6-15.3,3.9-21.7,3.5c-27.1-0.7-55.4-18.2-99-46.7c-18.4-12-34.7-17.4-68-26.7
		c-22.2-6.2-46.4-6.8-62.1-1.3c-5.1,1.8-9.1,4.2-10.7,6.5c-8.7,11.4-12,23.8-9.1,35.1c3,12.4,13.6,22.8,30,29.9
		c20.1,8.8,49.2,12,79.4,8.9c39.3-4.2,48.5,10.9,50.6,20c3.1,12.5-6.1,25.6-21.2,30.9c-2.5,0.9-5.9,1.7-8.7,2
		c-7.4,0.8-14.5,2.5-20.3,4.6c-11.4,3.9-19.1,10-22,16.2c-1.7,4.3-3.7,12.3,0.5,17.8c4.3,5,13.7,6.7,25.1,4.2
		c33.9-7.4,57-11.7,92.4-14.1c34.7-2.1,68.2-0.4,74.7,25.1c4.4,16.8-3.8,39.1-39.7,51.8c-5.7,1.9-12.2,3.5-19.1,5.1
		c-28.1,5.8-55.9,6.1-80.9,6.3c-11.3-0.1-22.4,0-32,0.7c-33.4,2.4-126.9-12-157.2-21.1c-29.3-8.7-71.5-9.2-95.6-0.7
		c-7.4,2.6-10.4,5.2-11.4,6.2c-5.9,6.3-8.5,15.7-6,23.9c2.1,8.6,8.5,15.1,18.8,18.6c10.8,3.4,17.9,13.4,18.4,24.9
		c0.5,11.1-5.9,25.5-25.1,33.2c-2.4,1.1-4.8,2-7.4,2.9c-24.9,8.8-50.1,11-74.8,13.3c-23,1.9-45.4,3.9-65.8,11
		c-2.4,0.8-3.9,1.5-5.4,2.1c-16.7,6.8-26.2,18.5-28.6,33.5C1339.5,1127.6,1346.9,1144.1,1359.8,1153.8 M3017,826.4
		c14,21.3,42,20.1,62.3,13c17-6,31.9-24,29.2-45.1c-3.1-20.8-22.8-33.5-53-22.9C3025.1,782.1,3005.8,809.2,3017,826.4 M1643.3,680
		c8.1-14.3-6.5-42.5-20-52.8c-21.3-15.8-46.2-23.3-62.8-2.5c-16.8,21-13.3,41.3,14.4,59.1C1599.4,699.1,1630.5,702.8,1643.3,680"/>
	<path style="fill:#A6CE39" d="M2659.1,1131.4c22.7-4.4,44-23.5,39.3-54.2c-2.4-16.7-20.8-35.5-37.3-39.9c-12.7-3.4-43.1-8.1-58.2,14.9
		c-14.6,22-4,43-0.5,50.7C2611.4,1122.1,2638.7,1135.2,2659.1,1131.4 M2719.5,1146.9c-12.8,20.1-6.5,37.8-4.5,44.1
		c5.4,16.1,24.6,25.4,40.6,20.3c17.6-5.8,35.1-23.9,34.1-50.2c-0.6-14.5-13.2-29.2-25.3-31.6
		C2755.3,1127.4,2733,1125.7,2719.5,1146.9 M3122.2,1824.3c-21.4-13.7-48-12.6-59.2-0.3c-11,12.4-20.9,38.4-6.5,59.8
		c6.9,10.7,19.2,24.7,45.7,27.9c20.3,2.9,38.8-16.1,41.3-37C3145.9,1854.1,3138.3,1834.5,3122.2,1824.3 M4156.6,918.8
		c16-13.6,18.2-33.4,8.1-45.2c-14-16.3-35.8-9.4-49.8,9.7c-9.9,13.8-7.5,31.2,6.4,43.3C4128.1,932.4,4140.9,931.8,4156.6,918.8
		 M2962.1,1948.3c-6.4,9.7-1.5,19.1,0.1,22.7c4.1,8.7,16.3,14.9,25.4,13.1c10.6-2,20.6-10.7,18.2-24.8c-1.4-7.3-9.4-16.1-16.9-17.9
		C2982.9,1939.9,2969.4,1937.8,2962.1,1948.3 M4583.9,859.8c-26-7.1-58.6,5.2-94.6,36c-8.1,6.9-16.3,15-24.3,23.3
		c-11,11.8-20.6,23-30.6,34.4c-18.4,21.6-36.9,43.5-67.8,72.5c-9.6,9-20.1,18.2-31.2,27.7c-28.6,24.5-59.9,48.8-80.1,61.9
		c-6.9,4.6-15.7,10.7-25.8,17.5c-26.3,17.8-59.1,40.5-81.2,51.3c-5.1,2.5-10.9,7.3-17,11.9c-14.5,12-39,31-58.1,8.8
		c-23.5-27.5-14.3-57.7-5.6-77.8c2.9-6.4,7.8-12.5,15.2-18.8c5.9-5.1,12.7-9.7,20.1-14.7c8-5.6,15.6-11,22.8-17.1
		c12.7-10.9,20.2-21.7,23.4-33.6c2.7-9.7,0.3-17.2-7.2-22.9c-9.5-7.3-23.7-8.7-30-4.9c-7.2,3.9-13.4,8.3-19.1,13.2
		c-22.3,19.2-34.9,44.9-46.6,77.7c-3.2,8.5-7.6,14.8-12.9,19.4c-13.4,11.5-30.5,10.6-41.9,5.6c-9-4.3-20.9-13.9-24.7-28.8
		c-2.7-9.2-3-23.5,9.7-40.5c18.9-25.6,27.7-49.5,24.2-67c-1.9-9.2-7.3-16.3-16.2-21.7c-8.7-5.3-18.3-4.3-26.5,2.8
		c-9.2,7.9-13.8,21.7-12.8,37.3c2.1,21.6-5,42.1-18.5,53.7c-8.8,7.5-19.2,10.3-30.6,8.3c-33.3-4.9-49.1-28.2-44.2-63.1
		c3.5-23.4,3.7-91.9,7.7-106.6c4.6-17,13.3-105.6,16.5-133.6c2.5-21.4-4-43.8-15.1-54.6c-4.6-4.5-9.6-6.2-14.6-5.4
		c-9.3,1.4-17.7,5.2-24.4,10.9c-10.6,9.1-15.6,22.4-12.8,33.9c14.1,53.2,15.6,227.5,15.9,259.4c0.1,16.1-4.2,27.5-12.5,34.6
		c-6.4,5.5-14.2,7.3-20.4,8.3c-20.8,3.1-46.6-28.1-49.8-48.9c-4.5-25.9-16.1-32.1-31.1-39.6c-15.9-8.3-35.5-18.6-39-54
		c-4.6-48.3-10.1-148-13.8-214.4c-1.4-18.6-2.1-34.6-2.9-45.9c-1.8-30.6-16-61.3-34.5-74.4c-8.3-5.9-16.7-7.7-24.7-5.5
		c-5.4,1.7-13.2,4.7-20.9,11.3c-19.6,16.8-24.1,43.8-13.1,76c30.5,89.5,98.8,302.7,76.6,351.4c-10.1,21.9-11,34.2-11.4,44
		c-0.7,12.2-1.5,23.7-18.2,38c-6.5,5.6-15.6,12-28.7,19.6c-14.2,8.8-30,10.6-45.4,5.3c-26.9-9.5-137.9-148.7-144.5-165.2
		c-6.3-17-23.5-37.9-42.3-43c-9.4-2.7-17.7-1-25.7,5.5l-2.2,1.9c-12.3,10.6-18.2,21.4-17.3,32c1.4,15.5,16.5,32.6,42.7,48.2
		c19.7,11.6,123.2,137.7,124.7,152.5c0.3,7.4-1.2,18.1-12.4,27.7c-2.4,2-5.1,3.6-7.9,5.3c-24.5,14.3-86.6-12.6-141.7-60.4
		c-70.7-62.1-143.1-140.3-180.3-186.9c-13.6-17.2-35.5-28.7-58-31c-19.6-1.7-37.5,3.4-50.6,14.6c-9,7.7-15.3,17.8-19.5,30.1
		c-20.7,63,10.4,98.1,39.8,116.5c17.7,10.9,83.9,39.2,142,64c50.9,21.8,52.4,22.9,69.1,31.9l8.4,4.9c83.2,45.7,43,27.8,71.7,37.9
		c15.5,5.5,39.7,35.5,30.4,43.5c-20.2,17.3-28.2,25.2-50.6,7.6c-15-12-29.7-12.6-35.9-7.2c-2.1,1.8-13.3,4.2-14,7.6
		c-0.7,2.7-21.3,19.6-25.5,39.5c-23.1-10.7-43.1-16.9-56-18.7c-47.2-7.6,37.1-54.1-7.5-90.9c-48.4-40.3-102-18-116.9,3.8
		c-30,43.4,54,57.1-1.8,81c-30.8,13-61,27.4-89.7,67.6c-42,58.4-27.3,93.6-66,98.1c-39.1,4.5-29.5-73.3-135.3-60.3
		c-75.4,9.3,18.7-86.7-78.8-121.9c-97.3-35.3-183.7,41.2-194.7,113.5c-16.7,112.5,121.7,68.2,97.4,114.2
		c-24.9,46.4-59.6,90.5-46.9,163.2c11.8,65.4,65.7,120.7,120.7,148.9c82.1,41.8,137.7,36.6,153.9,33.5c16.1-3.4,83.1-8.8,131.8-93.6
		c39-67.9,2.4-105.3,37.6-104.1c34.7,1.4,31.5,66.2,126.2,106.4c9.5,4.1,18.7,7.6,27.7,9.9c-3.5,2.4-6.9,4.6-10,7.3
		c-13.3,11.4-20.4,33.3-10.4,51.5c10.1,17.8,32.7,22.3,56.3,2c19.1-16.3,28.4-40.4,22.4-55c24.2-2.1,47.7-9.2,72.3-20.4
		c5.9-2.5,11.4-5.7,17.6-9.5l3.4,2.3c9.5,6.3,38.9-8.3,50.2-13.7c21.7-10.5,32.2-0.3,35.8,4.2c9.5,12.1,5,31.2-4.7,42.4
		c-5.2,5.9-13.2,13.7-23.1,22.2c-14.2,12.2-34.1,27.6-47.3,33.9c-18.6,9.2-33.2,14.4-46.4,18.9c-20.2,7-35.9,12.6-59.6,29.4
		l-2.9,2.5c-15.7,13.5-30.2,43.1-25.7,63.7c2.5,11.2,9.5,25.7,21.2,29.8c12.8,4.3,30.9-3.3,52.2-21.6c8.4-7.2,17.6-16.5,26.9-27.2
		c10.9-12.1,21.8-24.8,32.6-36.9c49.6-56.4,96.8-109.6,132.1-139.9c16.5-14.2,29.5-22.7,40.7-26.8c34.2-12.5,63.3-0.8,77.4,16.3
		c10.7,13.2,14.2,32.2,7.7,46.2c-3,5.7-7.2,11.6-13.1,17.7c-8,8.8-150.9,202.4-161.7,210.9c-11.4,9.4-23.4,18.8-33,29
		c-3.2,3.5-5.6,6.5-8.1,9.9c-10.6,13.6-15.3,25.5-13.7,34.7c1.1,5.4,5,10.1,11.9,14.5c10,5.9,31,11.1,46.9-5.8
		c5.8-5.7,9.9-13.7,13.3-23.4c8.1-24.1,167.9-260.8,188.8-283.2c2.6-2.8,5.2-5,7.5-7c12.3-9.4,28.9-7.7,44.6-0.4
		c15.1,7.5,24.4,21.3,26.1,38.5c2.4,24.6-14.9,53.2-33,83.1c-9.7,15.9-19.4,32.2-26.5,48.1c-9.2,20.5-6.7,36.5-3,46
		c4.5,11.3,12.3,19.1,18.5,21.8c3.2,1.4,14.9-0.1,26.8-10.3c5.8-5,15.3-15.5,17.2-32.5c1.2-12.1,11.5-119.7,28.7-145.7
		c5.1-7.2,10.2-13.2,15.5-17.7c12-10.3,25.3-14.5,38.5-12.5c17,2.7,32.5,14.6,45.1,34.9c13.3,21.7,18.3,99.8,19.6,123.1
		c1.9,40.7,4.2,190.7-1.6,221.9c-7.9,43.7-2.9,127,27.7,170.2c4.6,6.1,12,10.3,20.8,11.4c10.6,1.3,21.6-2,29.6-9
		c6.7-5.7,11.6-13.5,14.7-23.3c9.1-28-2.2-80.7-8.2-108.8l-0.6-2.4c-25.8-120.6-43.2-207.6-51-259l-1.6-9.4
		c-5.9-37.4,10.3-32.2,31.2-69.9c6.7-11.9,15.5-22.8,25.8-31.6c25.5-21.9,33.2-76.1,53.2-63.9c26,15.2,61.1,72,64.6,97.3
		c0.9,7.8,7.6,16.1,16,19c7.4,2.7,14.5,1.4,20.7-4c1.1-0.9,26.3-23.4-0.2-55.3c-13.5-16.1-27.5-27.3-40.2-37
		c-13.8-11.2-25.3-19.9-30.2-32c-5.8-12.9-3.5-25.6,5.3-33.2c8.9-7.6,23.1-9.2,38.7-4.1c17.3,5.3,29.8,19.4,41,31.9
		c17.7,20.2,20.2,19.8,25.1,15.7l0.4-0.4c6-5.1,8.8-9.7,7.8-14.1c-0.7-5.5-6.7-11.6-14.6-14.5c-12.9-5.3-34.8-14-44.2-35.1
		c-9.5-21.8-1.4-33.2,4.5-38.2c7-6,18.3-8.8,32.3-7.6c18.5,1.7,51.9,22.9,109.8,60.1c9.8,6.4,20.2,13.4,30.6,19.7
		c12,7.9,27.2,18,44.4,29.3c29.4,19.8,66.2,44.4,103,66.9c63.9,39.6,118.3,49,145.9,25.4c1.9-1.7,3.8-3.5,5.4-5.5
		c6.7-7.7,7-17.9,6.1-25.2c-2.3-20.9-17.8-43.7-39.9-59.7c-36.9-26.9-88.8-46.1-150.6-55.7c-52.4-7.8-140.4-39.6-156.7-50.4
		c-38.7-25.6-55.2-47.9-49.9-68.6c2.5-9.8,9.2-20,18.9-28.4c10.1-8.7,22-14.1,34.6-16.1c27.9-4.4,128.8,36.4,147.9,45.6
		c8.1,3.8,15.9,7.4,21.4,8.5c21.7,4.3,39,1.1,52.3-10.2c6.6-5.6,11.9-13.4,16.3-23.4c6-13.9-0.5-27.2-5-34.1
		c-8.1-12.9-22.3-22.2-33.1-22.5c-21.3-0.5-47.6,6-69,11.7c-8.8,2.4-16.4,4.3-22.8,5.6c-14.6,2.6-44.8-31.8-56.6-43.8
		c-11.5-11.7-16-27.2-13.2-42c3.3-15.3-49.9-32.4-36.2-44c6-5.2,12.4-9.2,18.5-11.4c24.8-8.8,56.8-2.9,106.8,7.9
		c20.9,3.9,37.7,3.2,71.5,0.1c22.5-2.5,44.6-10.2,56.8-20.7c4.3-3.7,6.8-6.9,7.6-10.2c4.2-13.4,2.4-25.8-3.8-35.1
		c-7.2-10.2-20.8-15.8-38.5-16.6c-21-1.1-48.7,6.5-75.2,20.2c-34.5,17.9-48,7.3-53.4-0.3c-7.3-10.5-3.5-25.5,8.2-35.6
		c2.4-2.1,4.8-3.7,7.3-5.2c6.5-3.5,12.4-7.2,17.2-11.4c8.7-7.4,13.6-15.5,14-22.1c0.1-4.7-0.7-12.9-6.9-16.3
		c-5.4-3.2-14.7-1.4-24.2,5c-28.2,18.5-47.8,31.1-79.2,45.5c-31.1,14.4-62.2,25.1-77.2,4c-9.9-13.7-10.7-36.9,17.9-61.4
		c4.5-3.9,9.7-7.6,15.2-11.1c23.9-15.6,49.5-25.7,71.7-34.8c10.5-3.9,20.5-8.1,29.2-12.1c29.6-14,120.2-34.1,150.9-36.6
		c30.1-2.3,68.7-17.1,87.4-33.1c5.8-5,7.8-8.3,8.4-10c3.2-7.8,1.9-17.1-2.7-23.9c-5.2-7-13.5-10.5-24.2-10
		c-10.9,0.5-21.1-5.8-25.4-16.5c-4.4-9.8-3.5-25.4,11-39.1c1.9-1.7,3.6-3.5,5.4-5.1c19.8-17,42.3-28.1,63.5-38.7
		c20.6-10.1,39.8-19.7,56.5-34l4.1-3.7c12.5-11.8,17.6-26.2,14.1-40.5C4611.8,876.2,4599.6,864,4583.9,859.8 M3433.8,1639.1
		c-1.9,7-6.1,13.6-13.6,20c-12.9,11.1-34,19.2-55.4,21.1c-11.4,1.4-21.7,2.5-31.1,4.5c22.1-25.1,40.7-57.3,51.2-94.8
		c5,4.9,12.3,8.9,21.7,13.4C3419.6,1609.5,3438.9,1618.6,3433.8,1639.1 M3406.5,1410.7c-0.4,8.9-3.9,31.2-22.6,47.8
		c-12.9-41.7-36.8-75.1-64.2-101.6c7.4,1.2,14.1,1.9,16.4,1.7c16.8-1.1,43.1,10.1,57.9,24.8
		C3404.9,1394.1,3407,1404.1,3406.5,1410.7 M4493.7,1392.5c-2.2,15.8,20.8,36.7,37.1,41.3c24.8,6.7,50.7,4.8,58-20
		c7.8-25.2-2.4-42.7-34.1-48.8C4526.9,1359.6,4497.5,1367.2,4493.7,1392.5 M4589.1,1745.5c-15.6,18-9.6,44.1-0.3,55
		c9.1,10.7,24.7,26.6,52.3,3.9c19.1-15.6,17.5-47-2.5-61.7C4623.9,1731.3,4603.2,1729.5,4589.1,1745.5 M4145.2,1807.8
		c-13,2.7-14,21.2,0.4,41.5c14,20.4,35,28.2,43.5,22c9.9-7.2,10.5-26.1-3.3-42.5C4171.8,1812.4,4159.4,1804.8,4145.2,1807.8
		 M3689.2,2123.4c10-19.3-6.3-43.6-20.4-51.7c-19.1-11.7-49.3-0.3-57.8,22.8c-7.3,21.9,10.5,45,34.1,51.5
		C3661.3,2150.3,3679.1,2142.6,3689.2,2123.4"/>
	<path style="fill:#9A3393" d="M3953.7,922.8c-0.3,6.2,4.9,17.7,15.2,18.1c8,0.6,16.9-2.4,20.2-14.5c2.1-9-7.7-20.1-18.9-18.3
		C3960.4,909.4,3954.2,915.3,3953.7,922.8 M3696.9,684.1c6,8.5,16,16.3,31.5,9.8c11.1-4.9,15.4-23.9,4.9-34.9
		c-9.5-9.2-20.6-11.3-28.8-5.6C3697.7,658,3689.2,673,3696.9,684.1 M3479.1,555.6c4.4,7,19.4,15.2,30.5,7.5
		c8.8-5.9,16.5-15.9,10-31.3c-4.6-11.7-24.2-15.6-34.7-5.2C3475.5,536.1,3473.6,547.3,3479.1,555.6 M3882.7,817.2
		c4.6,12.7,25.2,32.2,45.2,24.3c15.9-6.2,31.4-18.6,27-46c-3.3-20.1-32.3-34.3-52.4-21.5C3884.1,785.3,3877.1,802.2,3882.7,817.2
		 M2739.4,366.7c-11.8-11-26.3-12.1-38.1-4.2c-9.7,6.3-22.9,26.3-13.7,39c7.1,10,19.3,18.9,41.1,8.7
		C2744.3,402.9,2752.1,378.2,2739.4,366.7 M2947,296.5c0.3-7.9-2.3-17.4-14.4-20.3c-9.1-2.3-20,7.6-18.5,18.8
		c1.6,9.9,7.3,16,14.7,16.3C2935,311.6,2946.7,306.5,2947,296.5 M2794.5,466.2c-10.8,12-11.9,26.8-3.9,38
		c6.7,9.8,26.2,23.1,39.1,14.2c10.2-7.5,18.9-19.7,8.8-41.5C2831.3,461,2806.4,453.5,2794.5,466.2 M3656,1945.2
		c12.4,13.3,31.6,24.3,58.7,8.3c19.3-11.9,23.2-47.9,2.5-62.9c-18.8-14.2-39-14.1-52.9-2.1C3652.7,1898.7,3640.3,1927.7,3656,1945.2
		 M3470.7,1951c-10,1.5-16.2,7.4-16.6,14.7c-0.3,6.5,4.9,18.4,15,18.6c7.9,0.2,17.1-2.1,20.3-14.4
		C3491.5,1960.5,3481.6,1949.4,3470.7,1951 M3540.8,1970.7c-11,11.4-12.3,26.3-4.2,38.1c6.6,9.8,26.3,22.7,39.3,13.7
		c10.1-7.1,18.9-19.1,8.8-41.1C3577.4,1965.9,3552.5,1957.9,3540.8,1970.7 M3947.3,1643.7c7,10.2,19.2,19,41.3,8.9
		c15.5-7.2,23.4-32.2,10.5-43.7c-11.7-11-26.3-12.2-37.8-4.1C3951.4,1611.1,3938.2,1631,3947.3,1643.7 M3895.5,1443.8
		c1.9,25.2,14.4,54,64.1,59.4c35.7,3.4,76.3-32.4,66.2-67.2c-9.4-32.1-34.2-49.6-63.8-47.9
		C3937.8,1389.8,3893.1,1410.4,3895.5,1443.8 M3905.6,986.4c-0.4,8.5,7.1,25,21.2,25.4c10.9,0.4,23.8-3.1,28-20.1
		c3-12.8-10.8-28.5-26-26.2C3914.8,967.8,3906.2,976,3905.6,986.4 M3687.1,2059.1c-15.4-15-33.6-18.2-47.2-8.7
		c-11.2,7.3-25.2,31.6-12.9,49.4c9.7,13.4,25.6,26.1,51.4,15.6C3696.8,2107.1,3703.7,2075.8,3687.1,2059.1 M2574.2,1880.9
		c-6.1-14.7-32-20.5-45.6-6.3c-12.6,12-15.2,26.8-7.8,37.8c6.2,9.3,25.6,20.4,40.3,10.2C2572.5,1914.6,2582.6,1901.4,2574.2,1880.9
		 M3256.3,2009.2c-1-13.3-8.1-29.5-15.1-45.2c-2.3-5.4-4.8-11.1-7-16.4c-3.5-8.4-5.3-15.3-5.8-22.3c-1.1-14.6,4.4-23.7,9.3-29.2
		c16.2-17.5,47.6-18.2,81-18.6c16.3-0.5,33.6-0.8,45.6-3.3c48.6-11.1,67.6-26.4,86.2-41.8c6.2-4.7,12.1-9.8,19.2-14.4
		c11.8-8.2,23.5-11,34.4-8.7c18.4,3.8,29,20.9,38.6,35.7c13.2,21.4,17.1,23.9,23,21.6c14.3-5.8,13.9-11.4,13.6-15.6
		c-0.6-7.8-5-18-9.7-28.8c-5.9-13.9-12.5-28.3-13.6-43.5c-0.7-10.1,1.1-19.1,5.2-27.7c23.2-46.9,48.5-58.1,70.8-68.1
		c17.8-8.1,34.6-15.7,52.8-43.4c21.5-32.6,25.6-56.1,28.1-73.3c2.9-16.7,5.5-33.2,25.7-40.2c32.6-11.7,52.9,12.6,67.7,30.6
		c10.7,12.7,20.5,24.8,32,24.8c13.7-0.2,24.4-3.6,31-10.9c5.4-5.5,7.8-13.9,7.2-22.9c-1.3-17.3-14.7-36.5-37.2-38.3l-0.4,0l-0.4,0
		c-55.6-8.1-77.8-43.5-80-74.1c-1.2-15.7,2.3-31.6,10.1-45.8c16.6-31.1,24.7-65.8,22.3-98.4c-1.2-16-5.3-30.9-11.1-42.5
		c-11.1-21.9-18.1-44.2-19.3-61c-1.2-15.6,2.4-26.8,10.7-34.5c5.2-4.4,14.3-9.3,29.4-6.4c17.6,3.3,31.7,1,40.6-6.8
		c6.7-5.7,9.9-14.4,9.3-23.4c-0.5-6.5-3-11.9-7.3-14.1c-5-3.5-11.9-1.8-16.7,0.1c-19.5,7.9-42.4,14.1-63.7,3.6
		c-20.9-10.8-36-36.7-47-81.2c-1-5.1-1.8-9.3-2.1-13.2c-2.7-36.8,25-49.9,49.4-61.8c29.5-13.9,59.8-28.2,61.9-82.5
		c0.2-3.9,0.2-8-0.1-12c-2.7-36.6-24.2-69.1-52.9-80.8c-24.3-9.9-51.2-3.2-75.3,18.6c-7.7,6.9-13.9,18.1-19.8,29.1
		c-10.4,18.1-20.7,37.5-41.6,42.3c-14.8,3.5-31.3-1.5-50.6-15c-25.7-18.2-39.5-37.8-41-59.1c-1.5-19.9,8.5-40.2,29.3-59.3
		c8.4-7.9,9.4-16.1,9-22.1c-0.7-9.2-5.8-18.3-14.1-24.1c-6.8-4.4-18-8.5-34.3-3c-14.2,4.7-22.1,17.4-30.6,30.8
		c-8.7,14.3-17.8,29.2-35.4,32.9c-13,3.1-27.1-0.7-44.5-12.1c-36-23.9-53.4-45.8-55.1-69c-1.7-22.9,12.3-41.3,25.7-58.4
		c11.8-15.4,22.7-29.6,23.4-46.2c0-3.1,0.1-5.9-0.1-9c-0.9-12.8-5-22.1-12.3-27.3c-8.7-6.1-23.2-7.7-41.6-3.3
		c-38.6,8.9-53.1,30.9-52.3,77.3c0.7,33-4.2,50.6-16.5,60.6c-15.5,12.9-35.9,8.3-64.3,1.9c-25.9-5.9-58.1-13.2-99.8-11.4
		c-58.9,2.9-94.6,18.8-120.6,30.4c-30.4,13.8-56.5,25.6-90.5-1.2c-30.2-18.8-39.8-46.5-48.4-71.3c-8.1-23.8-15.1-44.7-39-60.2
		c-15.6-9.7-36.5-10.5-53-2c-15.8,8.4-24.9,23.3-26,42.2c0,2.1-0.2,4.7-0.1,6.7c2,26.8,21.8,52,41.1,76.3
		c17.7,22.3,34.3,43.8,35.9,65.8l0.2,2.6c0.4,32-26.2,40.4-49.7,47.6c-20.4,6.5-43.9,13.5-62,35.1c-21.1,25.1-36.5,35.6-52.2,34.7
		c-18.2-0.6-28.7-15.2-40.1-30.5c-4.6-6.1-9.2-12.3-14.5-18.5c-13.4-15-27.6-16.8-35.2-13.2c-7.2,2.8-11,9.5-10.4,18.4
		c0.6,8.7,6.8,31.8,49.7,59.9c16.9,10.8,26.7,19.9,27.7,32.9c0.8,11.8-6.7,21.1-16.5,32.8c-16.1,19-42.9,50.7-62.2,122.2
		c-7.8,28.7-38.5,23.5-63.3,19.5c-21.5-3.5-46-7.6-60.1,3.8c-6.2,4.6-8.8,15.1-7.8,28.3c0.4,6.1,1.7,11.6,2.8,14.4
		c2.5,5.5,7.3,12.5,14.1,14.4c4.9,1.3,9.9-0.1,13.1-2.2l3.7-2.4c15.6-10.2,48.1-31.7,73.9-3.2c4,4.1,6.2,10.5,6.8,18.3
		c1.1,14.7-3.8,37.3-7.1,52c-0.7,4-1.6,7.8-1.9,9.4c-2.4,17.8-2.7,42.8-0.1,78.5c1.2,16.3,2.8,32.4,4.2,47.8
		c1.3,13.7,2.6,26,3.4,37.3c0.9,12.8-2,22.7-9.3,29.4c-12.8,12.8-33.3,10.9-53.4,9.5c-16.8-1.3-35.8-3.1-43.6,4.4
		c-6,6.3-6.5,19.2-5.8,28.8l0.2,2.4c0.5,6.6,2.3,10.8,4.9,12.8c9,6,34.2-1.4,52.2-7.2c28.7-8.9,64.4-20,74.2,10.4
		c1.4,5.5,2.6,9.9,3,14.5c2,28.1-22.3,35.6-41.9,41.5c-4.3,1.3-8.7,2.7-13.4,4.5c-32.2,10.6-63.3,38.1-60.7,74
		c0.4,6,2,12.2,4.3,18.1c6.1,16.2,20.3,30.3,38.2,37.6c16.1,7.1,33.3,7.7,47.6,1.3c7.6-3.3,14.6-11.8,21.2-20
		c12.2-14.7,32.7-40,63.4-18.1c15.6,11.1,52.6,41.6,55.2,77.5c1,13.8-2.9,33.3-26.3,49.9c-24.8,16.9-41.4,52.3-39.1,83.7
		c0.7,10.2,3.6,20.1,8.2,28.2c9.9,17.6,29.9,37.6,51.2,40.1c12.3,1.9,22.9-2.1,32.9-12.9c7.7-7.6,7.1-24.2,6.8-41.3
		c-0.5-25.7-1.2-57.6,25.5-75.9c27.8-19.3,39.6-14.3,57.6,0.7c13.8,10.9,36.6,29.5,97.3,45.1c44.9,11.6,49.8,50.9,54.3,82.6
		c4.6,34.3,8.5,54.2,35.7,60.2c40.7,9.7,59.2-14.7,79.1-40.3c15.2-19.8,30.6-40,55.4-35c40.4,8.7,57.3,26.3,59.9,62.1
		c0.7,9.8,0.3,21.7-0.8,38.3c-0.4,4.3-0.4,9-0.1,13.3c1.5,21.1,10.5,39.4,22.3,46.2c8.9,5.4,20.1,4.6,33.2-1.8
		C3255.1,2030.2,3257,2019,3256.3,2009.2 M2881.6,1976.8c10.4-7,18.7-19,9.1-40.8c-7.6-15.9-32.4-23.4-44.3-10.9
		c-10.8,11.8-11.8,26.6-3.9,38.3C2849.1,1972.9,2868.9,1985.8,2881.6,1976.8 M3455,2034.7c3.2-12.5-10.7-28.2-26.1-25.8
		c-13.7,2.1-22.4,10.3-22.8,20.7c-0.4,8.7,6.7,24.8,20.9,25.5C3438.2,2055.4,3450.8,2051.6,3455,2034.7 M3159.2,2256.6
		c11.3-4.8,15.3-24.1,4.8-34.3c-9.3-9.2-20.3-11.5-28.5-5.8c-7,4.7-15.3,19.2-7.6,30.4C3133.9,2255.2,3143.8,2262.9,3159.2,2256.6
		 M3427.1,447.9c25.6-1.9,54.2-14.8,59.3-64.3c3.8-35.7-32.2-76.1-67.3-66.2c-31.4,9.5-49.1,34.7-47.4,64.3
		C3372.9,405.7,3394.1,450.3,3427.1,447.9 M2429.5,1719.1c-3.7-7.9-16.3-12.2-22.6-5.3c-5.4,5.9-6,13.3-2.1,19.2
		c3.5,4.9,13.6,11.7,20.3,7.2C2430,1736.3,2434.5,1730.3,2429.5,1719.1 M2959.9,383.2c0.3-10.8-3.2-23.5-20.3-27.8
		c-12.6-3.4-28.2,10.6-25.8,26.2c2,13.7,10.3,22.3,20.7,23.1C2943.2,404.9,2959.5,397.6,2959.9,383.2 M2626.8,712.8
		c-12.4-12.3-27.1-15.1-38-7.9c-8.9,6.4-20,25.9-9.8,40.6c7.8,11.1,21,21.8,41.4,12.7C2635.3,752.2,2640.5,726.8,2626.8,712.8
		 M2677.1,480.2c-9.3-22.4-47.5-30.4-68.3-9.9c-18.9,19.1-22.5,40.8-11.7,57.1c9,13.5,38.4,30.1,60.3,15.1
		C2674.3,530.2,2689.8,510.9,2677.1,480.2 M2413.2,1508.3c-7.5-7.1-17.4-7.7-25.1-2.5c-6.6,4.5-15.4,17.5-9.2,26.1
		c4.8,6.8,12.8,12.3,27.3,5.6C2416.7,1532.8,2421.9,1516.2,2413.2,1508.3 M2501.9,846.3c-11.9-10.9-26.5-11.9-38.2-3.9
		c-9.6,6.5-22.9,26.3-13.6,39.3c7,10,19.3,18.5,40.9,8.8C2506.7,883.2,2514.4,858.2,2501.9,846.3"/>
	<path style="fill:#00B6B5" d="M1805.9,759.7c10.7,5.5,12.9,8.2,21.3,7.8c1.9-0.2,4-0.3,6-0.8c8.8-2.3,22.8-9.3,24.2-29.4
		c1.3-17.7-3.6-39.8-20.1-45.8c-5.3-1.8-10.9-2.6-16.3-2.5c-12.6,0.7-16,5.5-23.3,17.9c-5.4,9.5-6.5,25.8-4.3,33.2
		C1795.6,746.5,1798.4,755.6,1805.9,759.7 M2075.7,760.8h0.8c13.8-1.1,26.6-10.9,35.9-20.9c8.9-9.8,11.4-30.8,10.6-43.9
		c-2.4-31.1-16.3-50.9-50-49.3h-0.1c-11.4,0.6-26.4,9.9-34.9,19.3c-10.4,11.9-9.6,39.5-8.4,55.7
		C2031.1,742.2,2051.4,761.9,2075.7,760.8 M2556.8,745h0.9c18.2-1.7,36.5-27.3,35.3-47.9c-1.6-22.2-17.1-37.9-36.8-37.1l-1.1,0.2
		c-20,1.4-30,17.4-28,43.2C2529.1,729.5,2541,745.9,2556.8,745 M3048.3,1227.8l2.4-0.5c20.4-2.3,22.1-6.6,32.4-21.7
		c12.1-17.2,15-41.3,8.4-67.4c-2.7-10.9-12.2-23.9-20.7-27.8c-6.4-2.9-13-4.1-20.6-3.7c-29.8,1.3-45.8,24.8-51.9,56.7
		c-3.5,16.7,0.8,34.2,12,46.9C3020.2,1222,3033.9,1228.3,3048.3,1227.8 M1793.6,823.2l3.6-0.5c3.1-0.5,12.6-7.2,11.1-15.7
		c-2.8-19.1-16.5-20.5-22.4-20.5c-2.5,0.2-5,1.4-7.3,4.1c-3.1,3.8-4.3,9.3-3.3,14.8C1777.1,817.6,1783.4,823.8,1793.6,823.2
		 M3174.1,1561.1l-1.5,0.2c-20.2,1.5-26.4,21.5-25.6,38.2c1.2,14.2,13.2,23.7,29.2,23l2.3-0.2c12.7-1.3,23-18.9,21.9-37.6
		C3199.7,1567.7,3186.2,1560.6,3174.1,1561.1 M3200.4,1353.9c-4.9-20.9-32.7-42.4-69-40.5c-8.4,0.2-16.6,1.9-24.3,4.6
		c-31.5,10.7-77.4,39.9-114.3,63.2c-19,11.9-36.9,23.3-50,30.4c-8.8,4.7-16.7,7.2-23.6,7.8c-15.3,0.6-22.9-10-23.6-20.4
		c-0.6-10.7,6.1-22,17.7-22.4h1c2,0,4.3,0,6.2-0.3c19.3-0.6,32.2-7.1,36.5-18c2.8-6.8,0.7-15.7-4.7-21.4c-3.8-3.7-7.2-5.1-11.2-4.9
		c-6.4,0.3-13.3,4.2-20,8.3c-7.7,4.3-15.3,8.9-23.2,9.2c-9.4,0.5-17.3-4.8-23.9-16.1c-7.1-13.2-7.1-33.6,0-47.2
		c5.5-10.3,15-16.6,26.2-17.8c30.6-2,53.6-11.1,60.7-23.6c3.5-5.8,3.5-12.5,0-19.7c-1.5-3.6-3.9-4.7-7.5-4.5
		c-9.4,0.3-24.1,10.3-38.3,19.6c-9.3,6.3-18.7,12.8-27.4,17c-5,2.5-10.6,4.2-15.7,4.2c-23.8,1-40.5-22.4-49.1-34.8l-1.1-2.3
		c-8.3-11.5-20.2-36.7-13.2-56.7c4-11,12.7-18.4,26.2-22.6c40.6-11.6,53.9-33.4,52.4-49.8c-1.6-15.8-15.5-27.5-34.6-29.3
		c-2.4-0.2-4.2-0.4-6.3-0.2c-23.2,1.2-33.8,23.2-42.7,41l-1.5,3.7c-7.4,14.1-16.7,17.6-23.1,17.8c-7.4,0.3-14.7-2.8-21.4-8.8
		c-7.9-7.4-12.8-18.1-13.3-28c-0.4-25.3,12.6-44.8,38.9-58.2c40.7-20.5,58.5-44.9,57.7-58.7c-0.1-6.5-4.5-11.3-12.8-14.6
		c-3.6-1.6-7.5-1.9-11-1.9c-18.7,0.9-38.7,20-60.4,56.8c-7.5,12-18.6,28.1-34.7,28.9c-4,0.1-7.7-0.6-11.8-2.1
		c-10.2-3.9-17.6-13.8-19.6-25.5c-1.7-9.8-1.4-29.1,20.9-49.3c34.5-32.1,55.1-74.7,52.2-111.6c-1.2-22.6-11.4-41.2-29-53.6
		c-15.1-10.5-28.5-15.4-40.6-14.9c-37.3,1.7-54.5,57.7-64.3,91.1c-10.9,34.5-20.9,55-42.4,55.9c-5.1,0.3-11.1-0.7-17.8-2.8
		c-35.9-11.3-30.7-49.6-28.2-68c1.2-5,2-10.2,2.6-14.6c4-22.5,4-28.4-3.7-30.6l-3.4-0.3c-7.9,0.3-14.5,18.3-16,43.4
		c-1,24.5-18.2,39.6-47.3,41c-7.7,0.3-16.1-0.3-23.9-1.9c-24.5-5.2-53.4-17.3-54.2-62.9c-0.4-11.2-3.5-20.1-9.9-25.5
		c-5-4.9-11.9-7.2-19.7-6.9c-9.2,0.5-17.9,4.7-23.2,11.5c-4.8,6-6.7,13-5.3,21c2.6,14-0.8,28.9-9.9,39.6
		c-6.1,7.8-17.5,17.3-38.3,18.3c-8.9,0.6-19.1-1-29.8-4c-53.6-15.1-59.6-66.9-58.3-115.7c0.3-8.2-2.1-15.5-6.2-19.9
		c-3.9-3.2-8.4-4.9-13.6-4.8c-5.6,0.4-10.9,3.3-13.9,8.1c-4.1,6.9-3.8,17.1,1.9,28.5l2,4.5c16.2,34,38.1,80.8,22.9,108.8
		c-8.9,16.4-28.5,27.9-49.2,28.9c-19.3,1.1-37.3-7.2-50-23.5c-8.2-9.9-21.8-16.2-32.5-15.9c-4.2,0.3-9.6,1.3-13.1,6
		c-3.8,5.9-4.3,15.4-0.6,27.5l1.1,2.5c7.5,24.4,13.8,45.3-8.2,58.1c-4.7,3.2-10.2,4.8-15,5c-33,1.6-59.5-53-95.6-136.5
		c-11.1-25.2-24.8-40-36.5-39.4c-6.4,0.2-11.7,5.3-14.2,13.3c-3.1,11-0.8,28.2,16.8,41c26.8,20,91,103.6,94.1,140.3
		c1.1,12.3-2.5,23.6-10.1,32.2c-9.5,10.5-24.3,17.4-39.2,18.2c-8.4,0.3-15.7-1.4-20.8-4.8c-10.7-7.4-16.4-16.4-21.6-24.6
		c-6.3-9.8-11.3-17.8-25.3-20.4c-3.3-0.8-6.8-1.1-10.3-0.8c-7.5,0.1-13.9,2.9-16.8,7.9c-3.5,4.4-3.7,10.6-1.9,17.2
		c4.8,15.4,15.3,20.5,27.6,26.1c11,5.4,24.3,11.8,32.6,27.4c5.3,9.3,5.3,20,0.3,28.3c-4.8,8.5-13.3,13.5-23.2,14
		c-3.7,0-7.8-0.3-11.4-1.4c-48.1-13.6-130.8-66.2-150.2-95.5c-3.9-6.5-9.9-7.5-14-7.1c-10.3,0.6-20.3,8.1-22.2,16.5
		c-1.9,8.3,4.4,17,17.9,23.7c6,2.8,14.6,6.8,24.9,11.2c43.4,18.9,116.9,50.7,130.3,92.2c4.8,14.9,1.3,24.3-2.5,29.5
		c-5.3,8-14.8,12.5-26.3,12.7c-5.3,0.6-10.7,0-15.8-1.6c-10.9-3.1-22-12.2-33.8-21.6c-13.2-11.3-27.8-23-39.4-22.3
		c-5.4,0.2-10.4,3.3-15,9.2c-4.3,5.6-5.1,11.3-2.6,16.8c7.9,18.9,48.6,36.4,80,40.7c15.6,2.2,20.7,11.3,20.6,19.4
		c-0.6,10.5-9.9,19.9-20.6,20.5c-4.2,0-8.8-1.2-13.2-4.1c-9.4-6.2-18.5-9.5-26.5-9.3c-10.4,0.7-15.6,7.6-15.7,13.9
		c-0.8,7.7,5.5,17.5,24,20c17.2,2.8,24.1,12.3,26.5,20c6.3,18.2-4.3,42.4-14.5,53.3c-12.4,12.6-28.8,20-47.6,20.8
		c-20,0.9-43-5.1-68.6-17.4c-13.8-6.6-27.1-9.8-39.1-9.2c-14,0.4-26.1,6.2-35.6,16.4c-11,12.3-17.6,30.8-16.4,48.9
		c0.9,21.5,16.4,61.4,67.5,59.2c10.7-0.6,21.9-2.9,34.4-6.7c24.7-8.3,46.8-12.5,65.6-13.6c23.8-1.1,41.9,4,50.3,14.3
		c5.4,6.1,6.7,13.6,5.4,21.7c-3.9,16.8-23.6,26.1-58.3,27.9c-9.7,0.6-19.4,0.4-25.4,0h-6.8c-16,0.8-25.1,6.9-24.4,16.7
		c0.4,12.2,14,26.4,30.2,25.6c3.6,0,7.1-1.4,10.7-3c21.7-10.4,42.4-19.9,59.3-20.7c9.6-0.3,16.8,2.2,22.3,7.7
		c10.4,10.5,22.2,42.7,16.8,68.2c-3.3,14.4-11.3,24.7-23.4,30c-18.9,8.4-36.1,11-56,14.5c-17.7,3.2-37.1,6.3-61.6,14.1
		c-24.1,7.5-31.9,27.5-29.1,42.9c2.1,13,12.4,26.1,34.4,25.1c2.6-0.1,4.8-0.2,7-1c31.3-5.3,55.4-18.9,76.4-31.2
		c16.3-9.4,29.8-17.2,44-19.1c2.6-0.6,5.3-0.6,7.9-0.8c19-1,33.6,5.1,44.1,18c8.7,11.4,13.8,26.8,14.8,46.1
		c1.6,39.4-51,101.5-100.7,136.6c-34.1,24.1-44.3,45.5-42.7,57c1.2,6.9,5.7,12,14.5,14.4c1.1,0.6,2.6,0.9,4.1,0.9
		c11.8-0.9,26.5-19.1,39.2-35.3c3.5-4.5,7.2-8.7,10.6-12.7l3.4-3.6c17.7-21.3,38-45.4,55.9-46.2c4.1-0.3,8.1,0.8,11.8,3.8
		c7.7,5.8,3.3,15.2-0.6,22.5c-1.6,3.2-4.6,8.9-3.5,10.7c0.3,0.8,1.9,1.7,5.8,2.5l3,0.2c10.7-0.7,22.6-11,29.4-25.6
		c5.5-12,20.2-40.1,38-41c4.3-0.1,8.6,1.4,12.2,4.4c4,3.2,5.8,7.3,6.2,12.4c1.1,23.3-35.6,61.9-82.8,110.7
		c-5.6,5.3-10.7,10.7-15.3,15.1c-32.3,33.4-33.3,55.5-32.3,63.7c0.9,5.9,3.2,10.5,7.3,12.7l2.1,0.8c11.4-0.8,32.2-33.6,44.7-53.3
		c2.1-3.2,3.8-6.1,5.8-8.9c2.6-4.2,6.1-9.5,9.6-15.2c19.1-32.6,48.4-81.7,83.4-84.7l1.7-0.1c14.4-0.5,21.3,7,24.1,13.4
		c9.1,19.4-3.3,55.3-16.4,70c-10.1,11.5-13.6,23.5-9.4,32.5c3.5,7.3,11.4,12,20.6,11.5c12.3-0.5,22.4-10.9,26.7-27.3
		c7.2-29.2,31.9-50.8,60.5-52c12.3-0.4,24.8,2.7,35.3,9.9c35.1,23.1,37.9,57.6,9.6,119.4c-15.1,33.5-20.1,54.3-15.1,65.2
		c2.2,4.9,7.2,8.5,15.7,10.9l4.8,0.8c17.9-0.8,27-42.8,31.8-65.4c10.9-52.4,34.1-81.6,64.3-83.2c3.5-0.2,7.1,0,10.8,0.6
		c22.6,3.4,30.6,17.3,37,28.5c6.6,11.8,11.4,20.3,29.5,19.3l1.4-0.1c22.3-1.4,26.3-13.5,31.1-28.7c3.8-10.6,8.1-22.8,19.7-31.5
		c6.8-4.9,14.9-7.8,23.4-8.3c20.2-0.8,40.1,11.7,48.8,31c11,25.8,0.4,68.1-5.5,80.3c-3,5.3-3.3,19.7,2.2,29.7
		c2.5,4.6,6,7.1,10.4,7.3l3.1,0.2c5.5-0.4,9.9-2.5,13.6-6.6c4.8-5.2,10.2-16.6,8.2-39.4c-2.3-26.1,4.5-39.4,10.5-46.5
		c5.5-6.1,12.4-9.6,20.7-10.4h1.6c4.3,0,8.3,2.2,11.4,5.3c8.5,9.4,11.3,30.1,9,70.4c-0.4,9.2-2.1,19.4-3.9,30.4
		c-3.9,26-8.5,55.3,2.4,68.4c4,4.9,10.3,7.5,18.7,7.8h2.5c6.1-0.3,10.3-2.4,13.1-6.2c11.6-16.5-2-61.2-8.7-82.4
		c-1.5-5.4-3-9.7-3.5-12.7c-3.3-13.5-13.3-72.3,3.1-94.4c4.3-5.5,9.4-8.3,15.9-8.9c1.2,0,2.5,0,4.2,0.4c3.9,0.4,6.9,0.8,9.7,0.4
		c14.9-0.8,19.3-8.6,20.9-39.8c0.9-22.1,20.1-33.5,37.5-34.1c15.5-0.8,29.6,6,37.1,17.8c6.4,10.4,12,25.6,18.1,43.5
		c9.2,27.8,19.8,59,37.8,79c4,4.1,8.2,6.1,12.8,5.8c6.6-0.2,12.8-4.4,15.7-10.7c2.5-4.7,5.8-13.9-1.7-25.9c-5.7-9.7-15-20.3-25-31.6
		c-20.2-22.5-43-48.6-40.7-74.6c1.1-13.4,6.8-21.4,15.1-21.6c5.4-0.2,12.6,2.1,21.3,14.6c4.5,7.1,21.1,19.1,36.8,18.4
		c6.7-0.6,12.7-3.1,17.5-8.3c7.5-8,10.3-17.5,7.9-27c-3.3-12.5-15.1-23-32.7-28.7c-8.2-3.1-12.4-10-11.2-19.6
		c2.4-16.2,19.4-35,37.6-35.8c4-0.4,8.1,0.4,11.4,1.6c27.7,10.9,71.3,49.7,100.5,87.9c11.3,15.1,33,24.6,53.8,23.8
		c13.9-0.8,32.9-6.1,46.4-29c13.3-22.7,1.7-52.2-28-71.7c-19.4-12.6-61.4-19.1-92.1-23.7c-11.1-1.8-20.9-3.4-27.3-4.9
		c-14.8-3.3-26.8-11.7-32.6-22.6c-6-10-6.8-21.5-2.8-33.2c4.5-13.9,18.4-29.2,37.7-29.9c5.4-0.2,11,0.7,16.3,2.8
		c5.8,2.3,11.5,5,16.9,8.1c10.1,5,19.9,9.7,26.6,9.5c2.7-0.2,6.8-1.1,9.9-8c2.6-5.2,2.6-10,0-14.1c-6.3-10.1-28-17-55.9-17.5
		c-21.4-0.5-32.9-13.2-33.1-24.7c-0.3-9.4,7.5-19.1,24.9-19.8l3.1-0.2c12.8,0.2,20.4,5.1,27,9.9c7,4.9,13.4,9.2,25.9,8.6
		c3.8-0.1,7.7-0.7,12-1.7c11.6-2.5,15.4-10.5,17.2-16.6c2.9-10.5-0.6-23.5-7.7-29.7c-5.8-5.3-12.5-7.3-22-6.8
		c-6.2,0.1-12.7,1.5-19.2,2.9c-5.9,1.1-12.4,2.4-18.5,3c-2.6,0-5,0-7.2-0.6c-16.6-1.8-26.5-17.4-25.6-39.4
		c0.9-24.8,16.5-52.1,43.1-53.4h3c29.2,0.6,93.5,16.9,119.8,30.5c14.7,7.5,27.8,11.5,38,10.9c11-0.7,18.2-5.9,22.6-16.5
		c1.7-5.2,1.7-9.4-1.1-13.4c-6.7-10.9-29.7-19-55.9-20.3c-13.1-0.6-40.5-2.2-66.5-3.8c-17.1-1.1-32.7-2.2-43.7-2.8
		c-16.8-0.8-25.6-15.9-25.6-30.3c0.1-15.2,9.4-26.5,22.8-27.1c3.3-0.4,6,0.2,9.4,1c8.8,2.5,17,4.9,24.9,7
		c29.5,8.4,50.7,14.7,65.3,13.8c8.8-0.6,14.8-3.2,19.2-9.2c6.2-8.4,7.8-17.1,4.9-23.1c-3.8-6.4-12.2-9.9-22.4-9.4
		c-7.8,0.4-14.6-4.1-15.6-10.3c-0.7-5.6,1-16.1,26.5-25c11.6-3.9,22.5-6,35.1-6.8c15.1-0.4,29.2,1.1,43.1,2.9
		c13.5,1.8,27.7,3.5,42.6,2.6c10.7-0.2,20.8-2,31-5C3195,1401.9,3206.5,1381.3,3200.4,1353.9 M1605.3,1227.2
		c-1.6-28.8-12-43.4-40.6-41.9h-0.7c-10.8,0.4-15.1,2.6-21.5,10c-6.8,7.5-9.8,18-9.2,29.5c1.5,21.8,12.1,42.9,35.1,42l0.3-0.2
		c11.2-0.6,20.9-5.4,27.5-13.1C1603.1,1246.1,1606.5,1236.6,1605.3,1227.2 M2830.3,2115l-1.4,0.2c-19.5,1.8-29.7,17.5-28,43
		c2.2,26.2,14.2,42.6,30.7,41.8l0.8-0.1c17.7-1.2,36-26.9,34.9-48C2865.6,2130.1,2849.9,2114.3,2830.3,2115 M1711.7,2054.8h-2.4
		c-8.6,1.7-18.4,9.1-17.5,21.5c0.6,15.8,5.9,20.3,22.9,20h0.6c7.3-0.4,13.8-4.1,17-10.2c3.6-5.8,4.3-12.6,1.3-18.7
		C1730.3,2059.6,1720.7,2054.1,1711.7,2054.8"/>
	<path style="fill:#005BAA" d="M966,445.3c8.3,1.1,24.2-4.8,25.8-18.5c1.6-10.7-1.6-22.8-17.4-28.4c-11.9-3.8-27.6,8.3-26.4,23.5
		C948.8,435.1,956,444,966,445.3 M621.5,765.7c12-7.2,23.4-19.7,16.1-41.3c-5.5-15.3-30.5-22.9-46.2-9.8
		c-13.3,11.8-17.2,26.5-10.3,37.9C586.6,762,605.9,775,621.5,765.7 M428.1,1044.8c9.8-5.2,22.2-24.5,13.1-40.1
		c-7-12.3-19.7-23.6-40.9-16.3c-16.1,5-23.2,30.8-10.4,45.9C401.7,1047.6,416.5,1051.3,428.1,1044.8 M817.9,530
		c17.4-5,45.6-30.5,36.9-58.1c-6.7-21.8-21.8-43.9-58.9-40.7c-27.2,2.5-49,40-33.9,68.1C775.3,525,797.2,536.1,817.9,530
		 M103,2016.5c-16,14.7-18.8,34-9.3,50.6c7.5,13.7,32.9,33.2,50.8,22.1c14.1-8.5,27.1-23.9,15.7-54.1
		C151.9,2013.4,119.6,2000.4,103,2016.5 M29.4,1731.7c-10.6-1.1-23.6,1.4-28.6,17.3c-4,12,8.2,27.6,23.3,26.7
		c13.4-1.2,22.2-8.2,23.3-18.2C48.4,1749.2,42.8,1733.1,29.4,1731.7 M241.6,1952.4c15.1,15.7,34.7,18.7,50.5,9
		c13.8-8,33.5-32.8,22.9-50.9c-9-14.5-24.5-27.3-54.7-15.9C238.2,1902.7,225.8,1935.2,241.6,1952.4 M2305.5,943.7
		c19-15.3,35.6-39.9,16.9-77.7c-14.1-27.1-61.8-35.7-83.9-9.5c-20.8,23.6-22.7,50.8-8,70.5C2243,943.7,2280.5,962.9,2305.5,943.7
		 M2295.2,1192.4c1,13.5,8.3,22.3,18,23.7c8.6,0.9,25.2-4.8,26.3-18.4c1-10.6-1.2-23.2-17.2-28.5
		C2310,1165.5,2294.1,1177.5,2295.2,1192.4 M2328.4,1100.5c14.3,15.9,34.1,18.9,50.6,9.2c13.7-7.8,32.9-33,22.2-51.3
		c-8.5-14.2-23.7-27.1-54.2-15.8C2325.6,1051,2312.5,1083.6,2328.4,1100.5 M1930.4,524.4c14.4-8.4,27.4-23.9,15.9-54.4
		c-8.1-21.6-40.7-34.5-57.5-18.4c-16,14.7-18.9,34.1-9.2,50.2C1887.2,515.5,1912.5,535.2,1930.4,524.4 M1657.7,574.1
		c33.9,0,73.7-14,85.8-80c8-47.6-35.9-105.4-83.5-95.2c-43.9,9.4-69.7,41-70.3,80.7C1589.6,512.3,1612.9,574.1,1657.7,574.1
		 M1046.5,516c11.4,1.4,34.3-7,36.1-25.9c1.6-14.5-1.8-32-24.2-39.4c-16.9-5.3-39.2,11.5-37.6,32.2
		C1022.5,501.8,1032.6,514.2,1046.5,516 M2461.1,913.2c-21.6,19.2-27.6,43.2-16.2,62.4c8.7,15.5,39.8,36.8,64.9,22.1
		c18.9-11.7,37.4-31.7,25.8-67.3C2526.2,904.9,2485,892.6,2461.1,913.2 M2280.5,2387.5c-15,4.8-22.7,30.5-9.7,45.3
		c11.4,13.5,26.4,17.1,37.8,10.9c9.5-5.8,22.1-24.6,13.2-40C2314.3,2391.4,2302.1,2380.3,2280.5,2387.5 M2113.7,2385.5
		c-20.3,6.8-30.5,40.9-12.9,60.5c14.9,18.1,34.4,22.9,49.8,14.1c13-7.2,29.8-32.2,17.6-52.9
		C2158.7,2391.1,2142.1,2376.4,2113.7,2385.5 M2352.2,1485c-17.9,0-40.2,8-61.9,15.9c-7.5,2.5-15.3,5.3-22.6,7.7
		c-11.6,3.9-21,5.7-30.4,5.7c-19.6,0-31.3-8.3-38.2-15.3c-21.9-23.5-19.7-65.5-17-110.2c1-21.8,2.3-45.1,0-61.3
		c-10.1-66.2-28.7-93.2-47.6-119.6c-5.7-8.7-11.9-17.2-17.3-27.1c-9.9-16.6-12.5-32.5-8.3-46.9c6.9-24.3,30.8-36.8,51.5-48.1
		c29.9-15.6,33.7-20.6,31.1-28.7c-6.3-19.7-13.9-19.7-19.5-19.7c-10.4,0-24.6,5-39.5,10.1c-19.2,6.6-39,13.9-59.5,13.9
		c-13.7,0-25.5-3.3-36.6-9.6c-60.5-35.8-73-70.7-84.2-101.5c-9.1-24.6-17.6-47.7-52.9-74.9c-41.5-32-72.5-39.6-95.4-44.9
		c-22.1-5.3-43.9-10.6-51.3-38.1c-12.5-45,22.1-69.9,47.5-87.7c18-13.1,35.2-25.1,36.4-40.4c1.1-18.4-2.5-33.1-11.5-42.7
		c-6.8-7.6-17.8-11.7-30-11.7c-23.3,0-50.2,16.1-54.9,46v0.6v0.5c-16.3,73.7-65.9,99.9-107,99.9c-21.1,0-42.1-6.1-60.3-18
		c-39.9-25.3-85.7-39.5-129.5-39.5c-21.5,0-41.9,4-58,10.8c-30.4,12.7-60.9,19.9-83.5,19.9c-21,0-35.7-5.9-45.2-17.7
		c-5.3-7.4-11.1-20.1-5.6-39.9c6.1-23.4,4.3-42.3-5.2-55c-7-9.5-18.3-14.6-30.4-14.6c-8.8,0-16.1,2.7-19.6,8.2
		c-5.3,6.4-3.6,15.9-1.6,22.5c8.7,26.9,14.8,58.1-1.4,85.6c-16.6,26.9-52.7,44.5-113.3,54.9c-6.9,1-12.7,1.6-17.9,1.6
		c-49.5,0-64.4-38.4-77.9-72.2c-15.7-40.8-31.9-82.9-104.3-90.9c-5.2-0.7-10.7-1-16.1-1c-49.2,0-94.9,25.6-113.4,62.9
		c-15.6,31.7-9.3,68.3,17.5,102.7c8.4,11.1,22.9,20.4,36.9,29.4c23.2,15.5,48.2,31.4,52.5,59.8c3.2,20.1-5,41.8-25,66.4
		c-26.8,32.6-54.4,49.1-83.1,49.1c-26.8,0-53-15.4-76.5-45c-9.7-12.2-20.6-14.2-28.7-14.2c-12.5,0-25.1,6-33.7,16.5
		c-6.5,8.7-13.1,23.3-7.3,45.8c4.8,19.4,21.2,31.2,38.2,44c18.3,13,37.4,26.6,40.6,50.6c2.9,17.7-3.6,36.1-20.5,58.3
		c-35.5,45.9-66.6,67.2-97.8,67.2c-30.8,0-54.1-20.6-75.7-40.1c-19.5-17.3-37.4-33.3-59.6-35.8c-4.1-0.4-7.8-0.8-12-0.8
		c-17.2,0-30,4.6-37.8,13.8c-9,11-12.6,30.3-8.4,55.3c8.1,52.6,36,74.1,98.3,77.6c44.3,2.2,67.4,10.6,79.4,28
		c15.8,22,7.5,48.9-3.8,86.3c-10.4,34-23.3,76.4-25,132.4c-1.9,79.2,16,128.5,28.9,164.5c15.6,42,28.8,78.2-10.4,120.9
		c-28.1,38.6-66.2,48.8-100.1,57.8c-32.6,8.5-61.3,15.9-84.4,46.3c-14.6,19.9-17.6,47.8-7.8,70.7c9.7,22,28.7,35.7,53.9,39
		c2.9,0.2,6.2,0.7,9,0.7c36,0,71.7-24.1,106.1-47.5c31.6-21.6,61.9-41.7,91.5-41.7h3.5c42.9,2.7,51.5,39,58.9,71.1
		c6.7,28,13.8,60.1,40.9,86.6c31.5,30.7,44,52.4,41.3,73.2c-2.6,24.3-23.1,37-44.8,50.6c-8.6,5.6-17.3,11.1-26.1,17.7
		c-21.4,16.4-25.2,35.2-21.1,45.8c3.1,10,11.7,15.7,23.6,15.7c11.8,0,43.3-5.9,85.1-60.7c16.1-21.6,29.2-33.9,46.8-33.9
		c15.9,0,27.5,11.1,42.2,25.4c23.9,23.3,63.7,62.4,157.5,95.1c37.8,13.3,27.7,54,19.9,86.7c-6.7,28.5-14.6,60.8-0.8,80.8
		c5.5,8.7,19.4,13.3,37.2,13.3c8.1,0,15.6-1.2,19.5-2.3c7.6-2.9,17.4-8.5,20.7-17.5c2.3-6.4,0.9-13.3-1.7-17.8l-2.9-5.3
		c-12.1-21.9-37.7-67.5,2.9-99.2c5.8-5,14.7-7.3,25.2-7.3c19.7,0,49.5,8.7,68.9,14.6c5.3,1.3,10.2,2.9,12.4,3.5
		c23.7,4.9,57,7.9,105,7.9c22,0,43.6-0.6,64.4-1.1c18.4-0.3,35.1-0.9,50.2-0.9c17.2,0,30.1,5,38.4,15.3c16,18.4,11.4,45.7,7.5,72.4
		c-3.4,22.4-7.6,47.7,1.7,58.8c7.8,8.7,25.1,10.5,37.9,10.5h3.3c8.9,0,14.8-2,17.6-5.2c8.9-11.5,1.5-46-4.5-70.7
		c-9.1-39.2-20.4-88.1,21.2-98.3c7.5-1.4,13.5-2.5,19.7-2.5c37.8,0,45.5,33.4,51.5,60.2c1.4,5.9,2.8,11.8,4.7,18.4
		c11.1,44.1,44.8,88.5,93.1,88.5c8,0,16.4-1.6,24.7-4c22.2-6.6,42.6-24.2,54.1-47.5c11.1-20.8,13.6-43.8,6.4-63.5
		c-3.7-10.6-14.3-20.7-24.8-30.3c-18.4-17.8-50.3-47.7-18-86.6c16.4-19.8,60.8-66.3,109.2-66.3c18.6,0,44.3,7.1,64.2,40.2
		c20.2,34.9,66,60.5,108.3,60.5c13.8,0,27.4-2.9,38.5-8.3c24.5-11.4,53.3-36.4,58.7-64.6c3.8-16.2-0.6-30.8-14.1-45.2
		c-9.5-11-31.7-11.9-54.7-13.1c-34.4-1.8-77.2-4-99.1-41.5c-23.2-39-15.3-54.4,6.6-77.1c16-17.4,43.1-46.1,69.9-125.9
		c19.9-58.9,73-61.7,115.8-64.5c46.5-2.8,73.4-6.1,84.1-41.8c16.9-53.6-14-80.7-46.3-109.9c-25-22.3-50.5-44.9-41.5-77.5
		c15.5-53.3,40.8-74.2,89.1-74.2c13.3,0,29.1,1.7,51.2,4.8c5.8,1,12,1.4,17.9,1.4c28.4,0,53.7-10.1,64-25.3
		c8.1-11.5,8.1-26.5,0.8-44.6C2380.1,1488.7,2365.4,1485,2352.2,1485 M2272.1,1983.5c-8.3-14.7-23.6-27-53.7-16.2
		c-22,8.5-34.6,41-19,58.2c14.8,15.5,34.5,18.4,50.9,9C2263.8,2026.7,2282.9,2001.4,2272.1,1983.5 M2405.7,1221.5
		c-16.3-5.4-38.7,11.5-37.1,32.4c1.5,18.6,11.6,31.1,25.6,32.6c11.6,1.4,33.9-6.6,36-25.5C2431.8,1246.1,2428,1228.8,2405.7,1221.5
		 M2673.8,1639.2c-5.2-15.6-30.7-22.8-45.4-9.8c-13.3,11.5-17.3,26.1-10.6,37.6c5.6,9.9,24.1,22.2,39.9,13
		C2669.5,1672.9,2680.8,1660.4,2673.8,1639.2 M278.9,1103.8c0-34.5-14.5-74-80.2-85.7c-47.5-8.5-105,35.7-95.3,83.6
		c9.7,43,41.7,69.1,81.4,69.7C217.2,1172.2,278.9,1148.2,278.9,1103.8 M1883,2563.4c-10.9,4.2-17.8,20.7-9.3,29.8
		c7.4,7.8,17.2,9.5,25.6,4.7c6.8-4.2,16.9-17,11.7-26.5C1906.1,2564.4,1898.5,2557.8,1883,2563.4 M146.7,1723
		c-14.4-1.5-31.7,2-39.1,24.5c-5.8,16.5,11.4,38.7,32.5,37c18.5-1.4,30.8-11.6,33-25.4C174.1,1747.4,165.8,1724.9,146.7,1723
		 M555.3,2201c-17.7,15.3-22.9,34.8-14.4,50.1c7.7,12.6,32.8,29.3,53.4,17.2c15.6-9.4,31.2-26,21.1-54.2
		C608.9,2193.4,575.4,2184,555.3,2201 M248.8,2111c-30.9,10.2-45.4,60.6-19.9,90.3c23.7,27.1,52.4,34.2,75.3,21.2
		c18.9-10.6,44.1-48.4,26.2-79.3C315.5,2119.5,291.2,2097,248.8,2111 M1599.3,2564.6c-10.3,9.4-12.1,22.7-5.9,33.3
		c5.4,9.3,21.9,22.4,34.1,15c9.5-5.7,17.7-16,10.1-36.1C1632.4,2562.4,1610.7,2553.9,1599.3,2564.6 M721.9,2381.3
		c-15.7,14.8-18.6,34.3-9,50.8c7.7,13.5,33,33.1,51.2,22c14.1-8.4,26.6-23.9,15.7-53.9C771.6,2378.5,739,2365.7,721.9,2381.3"/>
	<path style="fill:#A5CF4C" d="M4070.7,1222.5c-30.3-21.1-73.7-32.3-88.4-33.9c-17.6-15.6-102.4-84.9-225.1-81.9l-1.4,0l-0.9,1
		c-31.1,32.6-59.7,92.4-82.9,171.6c-31.8-34.7-79.1-53.1-137.5-53.1c-11.8,0-24.2,0.8-36.8,2.3c-51.2,6.1-82.3,20.7-105.1,31.4
		c-14.3,6.8-25.6,12.1-36.3,12.6l-1.6,0c-9.7,0-18.2-4-29.9-9.4c-19.5-9.1-46.2-21.6-96.6-23.6c-60.2-2.4-111.7,12.1-153.9,37
		c15.4-57.8,37.7-119.3,66.2-163.3l1.6-2.4l-2.3-1.8c-11.6-9.3-30.8-20.3-47.7-27.4c5.3-11.7,13.7-29,28.2-51.2l1.8-2.7l-2.7-1.8
		c-53.2-33.9-150-58.4-230.1-58.4c-23.4,0-43.6,2.2-59.9,6.4l-1.2,0.3l-0.7,1.1c-13.8,20.8-25,49.4-30.8,65.9
		c-16.4,1.4-42.2,6.9-57.8,14.1l-0.8,0.3l-0.5,0.8c-18.3,26.9-30.2,77.5-36.2,126.9c-36.9-9.3-77-14.7-115.9-14.7
		c-23.6,0-45.2,2-64.4,6l-1.8,0.4l-0.6,1.7c-4.3,12.2-8.2,29.6-10.4,39.5c-74,0.6-169.5,27.7-237.9,99.1
		c0.2-94.7,8.8-194.9,31.5-295.6l0.6-3l-2.9-0.9c-31.2-9.1-72.8-14-120.3-14c-120.8,0-256.3,29.5-302.2,65.7l-0.8,0.6l-0.3,1
		c-14.9,50.3-12.7,122.6,5.9,198.2c7.4,30,16.7,57.4,27.1,81c-19.7-5.1-40.4-8.6-62.1-10.5l-1.1-0.1c-11-0.8-22.2-1.2-33.5-1.2
		l-4.9-0.1c-124.2,0-273.1,55.7-346.4,129.4l-1.7,1.7l1.1,2.1c25.8,48.1,48.1,97.9,67.3,148.3c-20.8-15.9-42.6-30.6-64.8-44.5
		c-67.7-45.8-72.3-72.1-71.4-93.2c7.5-99,153.9-168,280.6-168c37.9,0,71.6,6.4,97.4,18.3l3.2,1.5l1.2-3.4
		c64.5-186.9-25.7-498.5-142.7-603.6l-0.8-0.8l-1.1-0.1c-12.4-0.7-25.2-1.1-38.1-1.1c-240.3,0-528.5,130.4-700.9,317.2
		c-121.3,131.2-178,283.8-164.2,441.1l0.1,1.1c14.4,138,80.8,244.6,197.4,316.5c95.5,59,203.3,79.2,249.3,87.8
		c83.7,15.8,78.9,43.4,76.7,56.6c-6.7,31.6-51.7,35.1-70.7,35.2c-14.4-0.1-64.9-3.5-109.3-40.9l-2.2-1.8l-2.1,1.9
		c-67.7,59.8-107.1,208.2-92,287.7l0.2,1l0.7,0.7c51.2,49.7,155,83,264.4,85.1h1.9c109.2,0,212.4-33.3,290.5-93.8
		c43.4-33.6,77.6-74.7,102.4-121.9c4.4,47.3,7.2,92,8.8,133l0.1,2.7l2.6,0.5c18.6,3.1,38.3,4.5,58.8,4.5
		c63.1,0,129.2-15.1,168.5-38.5l1.1-0.6l0.4-1.3c13-46.5,17.5-159.1,16.6-225.8c97.5-48.1,153.9-110.2,186.5-167
		c15,40.9,27.6,67.4,35.7,82.6l0.8,1.6l1.8,0.1c4.9,0.4,10,0.6,15.3,0.6c68.8,0,168.1-34.9,204.4-71.7l1.3-1.3l-0.4-1.7
		c-4.3-18.4-9.3-40.2-14.7-64.7c46.1,26.1,97.7,39.8,150.9,39.8c29.2,0,59.4-4.2,89.6-12.6c12.2,2.2,31.5,4.6,54.9,4.6
		c37,0,90.9-6.4,137.1-37.2l1.8-1.2l-0.4-2.1l-0.4-2.3c17.6,2.9,36.4,4.4,56.4,4.4c67.8,0,128.9-16.1,157-31l1.9-1l-0.2-2.1
		c-1.1-13.4-0.6-38.5,1.3-70.1c1.7,2.3,3.4,4.5,5.2,6.7c32,38,78.7,59.1,131.6,59.1c2.8,0,5.6-0.1,8.4-0.2
		c66.7-2.7,100-19.3,126.9-32.6c17.4-8.7,31.1-15.5,48.7-16.2l0.8,0l3-0.1c17.2-0.4,28.1,5,42,12c22.6,11.4,51.1,26,118.4,23.1
		c61-2.5,121-32.1,167.9-77.7c0.1,4.5,0.2,8.9,0.4,13.3l0,0.8l0.3,0.7c27,49.6,110,53.5,134.9,53.5c19.7,0,38.7-2.1,49.6-5.3
		c19.6,28.6,68.5,63.7,98.8,70.5l0.8,0.2l0.8-0.3c88.5-26.7,199.1-146.9,232.1-252C4180.7,1380.3,4154.7,1281.3,4070.7,1222.5"/>
	<path d="M4040,1194.6c-30.2-20.9-74.4-32.3-87.9-33.4c-30.3-27.3-113.8-84.4-223.7-81.8c-34.3,36-62.4,101.4-83.7,175.9
		c-37.4-44.2-98.7-63.3-175.4-54.1c-50.7,6-81.6,20.6-104.1,31.2c-14.6,6.9-26.2,12.4-37.6,12.8l-1.6,0c-10.4,0-19.1-4.1-31.3-9.8
		c-19.3-9-45.7-21.3-95.3-23.3c-62.8-2.5-116,13.5-159,40.7c15.8-61.4,39.3-126.5,68.6-171.9c-11.9-9.6-32.7-21.3-49.9-28.2
		c5.6-12.8,14.2-31,29.8-54.7c-71.3-45.4-215.2-70.5-287.5-51.6c-14.2,21.4-25.6,51.1-31.1,67.2c-15,1-42.2,6.4-58.8,14
		c-18.8,27.6-30.5,79.5-36.1,129c-61.2-15.9-130.1-20.3-182.4-9.6c-4.4,12.7-8.5,30.9-10.8,41.6c-74,0-174.6,28.1-243.6,104.1
		c-0.4-97.7,8.1-200.9,31.4-304.5c-119.6-35-357,1.7-419.5,51.2c-23.4,79.2-1,204.6,35.7,283.2c-21.5-6-44.2-10.1-68.2-12.3l-1.1,0
		c-10.9-0.7-22.1-1.1-33.3-1.1c-121.4-1.5-274.6,53.7-348.9,128.5c27.8,51.8,51.5,105.5,71.7,159.7c-23.4-18.7-48.4-35.7-73.9-51.7
		c-68.8-46.4-73.8-74-72.8-96.1c10.3-135.9,264.3-207.4,382.5-152.4c63.3-183.5-22.1-492.5-141.8-600.2
		c-233.7-14.5-546,108.7-736.4,315c-121.1,131.1-177,283.3-163.3,438.7l0.1,1c14.2,137,80.2,242.7,195.9,314.1
		c95,58.7,202.4,78.8,248.2,87.4c85.4,16.1,81.8,45.7,79.3,60.5c-6.3,30-44.4,37.7-73.9,37.7c-28-0.2-73.1-9.4-111.4-41.6
		c-67.5,59.7-105.8,206.6-90.9,284.7c51.3,49.8,155.1,82.2,262.2,84.1c157.2,0.6,322.3-70.3,397-223.9c5,50.9,8.1,99.5,9.8,144.4
		c81,13.3,175.6-4,225.1-33.6c13.2-47.1,17.5-161.2,16.5-226.9c73.5-35.9,146.6-93.8,190.5-172.4c14.7,41.1,27.9,69.8,37.8,88.5
		c71.2,5.9,180.6-33,217.1-70.1c-4.9-21.3-10.5-45.3-16.1-71.8c47.1,28.1,100.4,43,155.5,43c34.7,0,65.2-5.9,89.5-12.7
		c38.4,6.8,123.2,12.7,190.4-32c-0.4-2.2-0.8-4.6-1.2-6.9c80.7,14.3,176.5-4.6,215.8-25.5c-1.2-14.7-0.4-43.6,1.8-79.7
		c3.3,4.8,6.7,9.4,10.5,13.9c31.3,37.3,77.2,57.9,129.1,57.9c2.7,0,5.5,0,8.3-0.2c66-2.7,99-19.1,125.6-32.3
		c17.7-8.8,31.7-15.8,50.4-16.5l0.8,0.1l0.5,0l0.6-0.1c18.9-0.8,30.4,4.9,45.1,12.4c20.4,10.3,45.8,23,100.7,23h0
		c5.1,0,10.4-0.1,16-0.3c62.7-2.6,124.1-34,171.2-82.1c0.1,7.2,0.2,14.2,0.5,20.8c32.7,60,155,56,182.9,45.9
		c17.5,27.3,66.7,64.1,98.2,71.2c89-26.9,198.2-148.7,230-250C4147.6,1352,4124,1253.5,4040,1194.6"/>
	<path d="M3984.4,1733.8h10.2v27.1h11.2v-27.1h10.2v-9.3h-31.6V1733.8z M4046.5,1724.5l-5.2,21.4h-0.1l-5.2-21.4h-16v36.4h10.6
		v-23.3h0.1l6.3,23.3h8.4l6.3-23.3h0.1v23.3h10.6v-36.4H4046.5z"/>
	<path style="fill:#FFFFFF" d="M1812.3,1374.6c-130.8-9.2-263.1,47.1-298,79.3c111.2,222.8,155.7,503.7,164.2,685.1
		c32.6,2.3,79.4-6.2,108.2-19.1c7.1-30.1,10.5-116.8,6.1-222.9c82.8-31.2,215.6-113.2,231.5-260
		C2040.1,1484.4,1956.2,1387.1,1812.3,1374.6 M1787.6,1809.4c-6.8-87.8-18.8-181.1-38-262.8c50.7-7,114.5,8.3,134.5,77.4
		C1909.2,1718.9,1843.2,1782.3,1787.6,1809.4 M1397.3,1599.5c-69.5-46.8-105.1-91.7-101.9-153.7c12.3-191.6,304.6-249.4,398.1-224.1
		c21.6-110.7-29.6-360.7-121.8-460.9c-330.4-5.1-842.7,278.9-807,684.1c28.1,269.9,283.1,324.5,392.1,344.9
		c129.9,24.6,138,92.7,130.6,135.5c-21.2,109.4-176.8,102-233.5,68.2c-21.7,26.8-49.8,127.9-45.3,166
		c138.2,103.8,554.8,82.9,574.6-269.6C1586.6,1745.9,1510.4,1670.4,1397.3,1599.5 M2205,1033.2c-81.1-13.7-254.5,13.3-303.1,42
		c-14.1,58.8,15.7,200.9,43.8,238.4c16.9-9.5,35.8-18.8,55.7-27.3c10.5,156.9,78.2,424.3,119.7,511.3c35.7-1.9,97-21,120.9-37.3
		C2181.4,1503.1,2163.7,1255.1,2205,1033.2 M3033,1101.5c-11.6-6.6-28.2-12.7-47.9-17.9c10.7-27.2,20.4-48,27.7-61.4
		c-31.5-15.5-132.6-31.2-175-25.2c-10.4,20.9-19.6,43.9-27.8,68.2c-22.6,1.2-43.5,4.1-60.8,9c-16.2,30.8-27.6,134.7-21.8,180.5
		c12.5-4,26.7-7,41.9-9.3c-22.7,160.4-18.2,328.4-5.4,406.8c37.4,3.5,86.1-0.9,119.3-12.6c1.5-154.1,24.5-290.8,51.7-397.6
		c21.4,1.9,38.9,4.5,49.1,7.3C2991.9,1211,3014.7,1132.8,3033,1101.5 M2536.7,1197.5c-4.3,16.7-7.9,33.9-10.7,51.6
		c-74-17.1-199.3,6.6-266.8,106.2c-75.5,115.1-28.6,249.7,40.3,299.4c96.9,68.6,203,47.3,258.5,20c2,6.3,4,12,6,17.1
		c28.8,4,79.6-0.8,100.4-11.9c-16.2-150,4.5-354.3,44.7-454C2679.9,1209.1,2593.1,1190.9,2536.7,1197.5 M2455.8,1620.1
		c-67.4-14.5-102.6-89.3-63.5-152.8c30.5-47,85-58.5,125.2-51.8c2.8,74.1,12.9,144.9,24.8,199.5
		C2520.1,1623.1,2490,1627.6,2455.8,1620.1 M4008.5,1239.9c-42-27.6-95.2-30.2-129.6-23.4c6.1-10.9,12.2-20.9,18.1-29.6
		c-28.6-24.3-95.6-49.2-142.3-51.2c-71.2,93.7-107.1,390.3-102.5,438.7c8.4,10.9,69.9,23.8,95.1,18.2
		c12.6-71.3,44.8-177.9,81.5-268.8c80.8-14.1,110,55.3,93,120.2c-17.9,70.4-71.8,134-101.4,155.5c6.1,15,37.8,47,58.3,51.9
		c51.9-23.4,148.8-115.4,178.8-206.2C4087.4,1356.5,4066,1279.9,4008.5,1239.9 M3490.2,1231.4c-70.5,2.9-138.5,46.4-177.4,107
		c-18.2-58.2-71.8-96.9-142.3-94c-97.8,4-191,86.5-208.1,184.1c-17,97.7,48.5,173.6,146.3,169.6c70.5-2.9,138.5-46.5,177.4-107.1
		c18.2,58.3,71.9,96.9,142.4,94c97.8-4,191-86.4,208-184.1C3653.5,1303.3,3588,1227.4,3490.2,1231.4"/>
	<path style="fill:#DCDDDE" d="M3265.7,1283.4c8.3,11.1,14.9,23.7,19.3,37.9l5.9,18.8l7.9-12.3C3291.1,1310.2,3279.9,1295.2,3265.7,1283.4
		 M3270.1,1449.7l-10.7,16.5c-38.4,59.8-105.2,100.1-170,102.8c-2.3,0.1-4.6,0.2-6.9,0.2c-34.2,0-64.8-10.5-88.1-30
		c1.3,1.7,2.6,3.5,4,5.1c24.3,28.9,60.9,44.9,103,44.9c2.3,0,4.6,0,7-0.2c64.9-2.7,131.6-43,170-102.8l2.7-4.3
		c-1.9-4.3-3.7-8.8-5.1-13.4L3270.1,1449.7z M3600.4,1285.2c-4.5-5.4-9.5-10.4-14.9-14.8c22,29.2,30.2,67.7,23,109.1
		c-16.3,93.5-105.8,172.6-199.4,176.4c-2.3,0.1-4.6,0.2-6.9,0.2c-34.6,0-65.1-10.8-88.1-30c23.7,31.5,61.8,49.9,107,49.9
		c2.3,0,4.6,0,6.9-0.2c93.6-3.8,183-83,199.4-176.4C3635.1,1355.6,3625.5,1315,3600.4,1285.2"/>
	<path style="fill:#DCDDDE" d="M1759.5,1790.2l1.1,13.5l12.2-5.9l4.5-2.4c-7.7-92.2-20.3-177.2-36.6-246.7l-2.3-9.8l10-1.4
		c7.9-1.1,15.8-1.7,23.7-1.7c33.4,0,61.7,9.4,83.1,26.9c-22.1-30.2-57.5-46.8-102-46.8c-7.8,0-15.8,0.6-23.7,1.7l-10,1.4l2.3,9.8
		C1738.9,1601.9,1752,1692.3,1759.5,1790.2 M1970.9,1458.8c-5.5-6.6-11.6-12.9-18-18.7c35.7,44,50.8,104.8,43.4,176
		c-13.9,128.7-125.6,214.8-225.6,252.4l-6.2,2.3l0.3,6.7c4.5,108.5,0.7,186.1-5,215.9c-20.3,8.4-48.4,14.4-73.8,16.3
		c0.5,7.5,0.9,14.4,1.2,20.5h2.6c28.7,0,64.4-6.8,88.9-16.8c5.7-29.8,9.5-107.4,4.9-215.9l-0.3-6.7l6.2-2.3
		c99.9-37.6,211.7-123.8,225.6-252.4C2022.6,1564.2,2007.3,1502.9,1970.9,1458.8"/>
	<path style="fill:#DCDDDE" d="M2387.6,1586.5c-4.8-6.5-8.9-13.6-12.2-21.2c-14.1-33.1-10.8-70.5,9.1-103c23.8-36.7,64.4-57.7,111.4-57.7
		c4.1,0,8.2,0.2,12.3,0.5c-0.1-3.3-0.3-6.6-0.5-9.9l-0.3-7.5l-7.4-1.2c-7.4-1.2-15.2-1.9-23-1.9c-47,0-87.6,21-111.4,57.7
		c-20,32.5-23.3,69.9-9.1,103C2363.5,1561.5,2374.2,1575.5,2387.6,1586.5 M2697.4,1230.2c-6.2-2.8-14.1-5.6-23-8.2
		c-35.8,105.7-52.8,291.6-38.8,432.2c-15.2,5.8-42.1,9.8-67.5,9.8l-4-0.1l2.5,7.9c1.3,4.1,2.6,7.9,3.9,11.4c5,0.5,10.6,0.7,16.5,0.7
		c25.4,0,52.3-4,67.5-9.8C2640,1528.3,2658.9,1333.5,2697.4,1230.2 M2547.8,1651.9l-3.3-10.1l-9.6,4.7c-32.2,15.9-72.5,25-110.5,25
		c-50.4,0-97.1-14.9-138.5-44.3c-3.3-2.3-6.6-5-9.8-7.9c8.9,11.1,18.6,20.6,28.7,27.8c41.5,29.4,88.1,44.3,138.6,44.3
		c38,0,78.3-9.1,110.5-25l5.3-2.6c-2.6-0.1-5.1-0.3-7.5-0.5C2550.4,1659.8,2549.1,1656,2547.8,1651.9"/>
	<path style="fill:#DCDDDE" d="M3900.5,1328.6c-1.2-1.7-2.3-3.4-3.6-5c-15.5-20.1-38.6-30.8-66.6-30.8c-7,0-14.3,0.7-21.8,2l-5.1,0.8
		l-1.9,4.8c-35.9,89.1-67.2,191.7-80.8,264.2c-2.2,0.1-4.8,0.2-7.5,0.2c-17.5,0-37.4-3.6-52-7.7c-0.1,5-0.1,9.3,0.1,12.9
		c8.9,5.4,42.9,14.7,70.8,14.7c2.7,0,5.3-0.1,7.5-0.3c13.6-72.4,44.9-175.1,80.8-264.1l1.9-4.8l5-0.8c7.5-1.3,14.9-2,21.8-2
		C3869.1,1312.8,3886.5,1318.3,3900.5,1328.6 M3875.8,1203.5c3-5.1,6-10.1,8.9-14.6c-6.5-4.7-14.3-9.2-22.8-13.6
		c-3.2,5.2-6.5,10.7-9.8,16.7l-9.7,17.3l19.5-3.8C3866.3,1204.7,3871,1204.1,3875.8,1203.5 M4013.2,1255.1
		c31.8,41.4,38.7,102,16.9,167.2c-28.5,86-118.8,174-170.9,199.3c-7.2-2.7-16-8.9-24.2-16.1c10.1,13.3,29.6,31.1,43.1,36
		c52.1-25.3,142.4-113.3,170.9-199.3C4074.7,1365.7,4060.8,1295.3,4013.2,1255.1"/>
	<path style="fill:#DCDDDE" d="M1990.8,1252.8l-11.9,5.1c-14.5,6.2-28.2,12.8-41.1,19.5c3.6,9.4,7.3,17.7,11,24.1c13.7-7.4,28.5-14.6,44-21.4
		c-0.4-4.9-0.8-9.7-1.1-14.3L1990.8,1252.8z M2194.3,1040.9c-6.7-0.8-14-1.4-21.8-1.8c-33.3,204.3-20,438.5,40.2,696.9
		c-21.7,12.5-63.4,25.8-94.7,30.7c3,7.7,6,14.9,8.8,21.2c31.9-3.2,80.7-18.2,104.8-32C2169.6,1490,2157.1,1249.5,2194.3,1040.9"/>
	<path style="fill:#DCDDDE" d="M2978,1076.7c7.6-19.1,15.2-36.4,22-49.9c-6.8-2.5-15.4-4.9-25-7.2c-5.6,11.9-11.4,25.7-17.3,40.6l-3.8,9.6
		l9.9,2.7C2968.8,1073.9,2973.5,1075.3,2978,1076.7 M2735,1218.9c-0.1,8.6,0,16.8,0.4,24c6.9-1.8,14.5-3.4,22.5-4.8
		c0.5-3.8,1-7.5,1.5-11.2l1.7-12.3l-12.2,1.9C2744.1,1217.2,2739.5,1218,2735,1218.9 M2996.5,1096.5
		c-14.9,34.2-30.4,86.9-38.4,121.9c-10.7-2.1-25-4-41.4-5.4l-7.8-0.7l-1.9,7.6c-32.2,126.3-50.1,262.1-51.9,393.2
		c-22.9,7.1-53.6,11.3-83.6,11.3l-2.1-0.1c0.8,6.9,1.6,13.4,2.5,19.4c5.9,0.4,12.2,0.6,18.6,0.6c30,0,60.7-4.1,83.7-11.2
		c1.7-131,19.7-266.8,51.9-393.2l1.9-7.6l7.8,0.7c16.4,1.4,30.7,3.3,41.4,5.4c8.9-39,27.1-99.9,43.5-132.8
		C3013.7,1102.4,3005.6,1099.4,2996.5,1096.5"/>
	<path style="fill:#BCBEC0" d="M804,1529.9c-6.2-2.8-14.3-5.2-23.3-7.1c18.1,57.4,48.2,102.2,84.4,137.4c4.5-15.9,6.5-33.6,2.8-50.5
		C860.6,1576.5,829.8,1541.6,804,1529.9 M901.9,1389.8c-27.9-7.1-60,27.7-54.7,63c7.6,36.7,48.8,38.9,70,30.7
		C956.2,1466.7,934.8,1398.4,901.9,1389.8 M1255.9,1633.8c24.6-0.5,37.3-13.7,37.9-34.1c0.3-14.6-1.9-47.3-24.7-74.5
		c-24.1-27.3-54-10-67.1,3.8c-12.9,12.9-28,35.2-22.5,57.8C1188.6,1622.1,1229.9,1634.1,1255.9,1633.8 M1075.5,1771.6
		c31,8.5,59.2,14.1,81.3,18.2c40,7.6,68.4,19.3,88.4,33.1c5.3-11.5,8.9-26,9.6-44.1c1.6-43-20.8-71.9-55.1-85.1
		c-37-11.6-84.5,6-106.6,27.5C1079.3,1734.2,1074.6,1751.3,1075.5,1771.6 M1066.9,1660.8c15-18.2,27.7-53,17.2-83.8
		c-10.5-30.8-46.7-56-73.5-57.4c-24.3-1.2-49.4,9.1-67.3,31.4c-17,21.1-19.4,53.9-16.2,81.9c3.7,28.3,22.5,49.9,50.1,55
		C1019.1,1695.2,1051.9,1679,1066.9,1660.8 M1120.9,2013.8c-26.8-3.2-50.9-10.7-67-20.3c-11.8,14.7-25.6,51.6-34.9,88.2
		c6.9,2.3,14.8,3.3,23.8,3.1c23.3-0.6,47.1-9.5,61.4-25C1117.4,2045.2,1122.1,2029.4,1120.9,2013.8 M1482.2,1661.1
		c-29.4-9.2-56.4-0.7-74.4,12.8c-21.2,15.5-46.8,45.1-62.3,95.2c-16.8,51.7,7.8,93.8,45.3,116.3c38.8,22.7,99.1,27.1,132.7,24.9
		c26.5-2.1,43.1-11.4,57.8-30.1l1.9-2.7C1582.5,1780.5,1544.1,1715.5,1482.2,1661.1 M1427.2,2020.3c-30.8,3.3-60.8,28.7-68.9,62
		c-8.5,35.3,2.2,69.8,21.4,82.2c6.7,4.7,12.4,7.7,17.7,9.7c47.2-22.2,89.9-54.2,122.5-98c-2.4-12.1-8.2-23.1-15.4-31
		C1491,2030.1,1460.4,2017.4,1427.2,2020.3 M1212.6,2079.2c-44.7-6.9-96.4,27.7-116.7,62.5c-11.2,20.6-13,38.4-10.2,54.7
		c66.4,20.3,151.5,24.2,232.6,5.1c1.6-15,1-30-2.9-41.6C1301.9,2122.5,1258.8,2086.9,1212.6,2079.2 M1375.7,1971
		c-7.1-25.2-42.4-42.2-63.8-30.1c-19,11.1-22,38.7-17.2,54.5c4.7,15.8,19.8,29.3,39.9,25.8C1358.3,2017,1382.8,1996.3,1375.7,1971"/>
	<path style="fill:#DCDDDE" d="M1555.1,1869.7c-13.1,232.6-204.2,315.2-363.9,315.2h0c-66.7,0-129.4-14.2-173.8-38.6c-0.1,2.9-0.1,5.7,0,8.1
		c44.3,31.5,115.9,50.3,192.7,50.3c159.7,0,350.8-82.6,363.9-315.2c2.2-92-28.3-154.8-82.8-207.8
		C1533.8,1730.6,1557,1788.9,1555.1,1869.7 M1260.6,1822.7c-19.4-26.6-56.1-49.6-121-61.8c-93.7-17.6-207.4-49.3-287.3-126.7
		c80,92.1,204.8,127.6,306.2,146.7C1206.5,1789.9,1239,1804.8,1260.6,1822.7 M1567.6,770l-3.1,0c78.1,108.3,117.2,320.6,102.6,420.8
		c-12.7-2.5-27.9-3.7-44.7-3.7c-137.1,0-344.8,75.7-355.2,238.3c-2.3,45.5,14.6,83.9,54.8,121.8c-26.6-31.6-37.8-64.3-35.9-101.9
		c10.4-162.6,218.1-238.3,355.2-238.3c16.7,0,32,1.2,44.6,3.6C1701.6,1103.8,1656.1,869.8,1567.6,770"/>
	<path d="M3180.3,1271.2c-57.7,1.9-112.1,44.4-121.4,95c-9.3,50.6,29.9,90.2,87.6,88.4c57.7-1.8,112.1-44.3,121.4-94.9
		C3277.2,1308.9,3238,1269.4,3180.3,1271.2 M3471.7,1259.4c-57.9,2.4-112,45.5-120.9,96.4c-8.9,50.8,30.9,90.2,88.8,87.8
		c57.9-2.4,112-45.5,120.9-96.4C3569.4,1296.3,3529.7,1257.1,3471.7,1259.4"/>
</g>
</svg>